<svg xmlns="http://www.w3.org/2000/svg" width="576.277" height="561.277" viewBox="0 0 576.277 561.277">
  <g id="add-category" transform="translate(-73 -402)">
    <path id="search_5_" data-name="search(5)" d="M199.945,359.9h67.98v39.988h-67.98Zm-74.98-5a24.992,24.992,0,1,0,24.992,24.992A24.99,24.99,0,0,0,124.965,354.9ZM401.887,232.933H199.946v39.988H401.887Zm-276.922-5a24.992,24.992,0,1,0,24.992,24.992A24.99,24.99,0,0,0,124.965,227.937ZM401.887,112.968H199.946v39.988H401.887Zm-276.922-5a24.994,24.994,0,1,0,24.992,24.992,24.992,24.992,0,0,0-24.992-24.992ZM39.988,451.874V59.983a20.017,20.017,0,0,1,20-20H451.875a20.016,20.016,0,0,1,19.992,20V285.921h39.988V59.983A60.051,60.051,0,0,0,451.875,0H59.984A60.054,60.054,0,0,0,0,59.983V451.874a60.051,60.051,0,0,0,59.984,59.98H290.918V471.866H59.984a20.016,20.016,0,0,1-20-19.992Z" transform="translate(73 402.001)" fill="#6c757d"/>
    <g id="Group_1548" data-name="Group 1548" transform="translate(162 476)">
      <path id="Path_934" data-name="Path 934" d="M360.971,487.277A126.3,126.3,0,1,1,487.277,360.971,126.449,126.449,0,0,1,360.971,487.277Zm0-223.462a97.157,97.157,0,1,0,97.159,97.155A97.263,97.263,0,0,0,360.971,263.815Zm0,0" fill="#6c757d"/>
      <path id="Path_935" data-name="Path 935" d="M371.906,434.688a14.579,14.579,0,0,1-14.574-14.574V313.242a14.574,14.574,0,1,1,29.147,0V420.114A14.579,14.579,0,0,1,371.906,434.688Zm0,0" transform="translate(-10.935 -5.705)" fill="#6c757d"/>
      <path id="Path_936" data-name="Path 936" d="M420.114,386.479H313.242a14.574,14.574,0,1,1,0-29.147H420.114a14.574,14.574,0,1,1,0,29.147Zm0,0" transform="translate(-5.705 -10.935)" fill="#6c757d"/>
    </g>
  </g>
</svg>
