<svg id="add-event" xmlns="http://www.w3.org/2000/svg" width="561.277" height="561.277" viewBox="0 0 561.277 561.277">
  <path id="Path_930" data-name="Path 930" d="M198.784,440.236H64.314A64.364,64.364,0,0,1,0,375.926V106.978a64.364,64.364,0,0,1,64.314-64.31h339.1a64.364,64.364,0,0,1,64.314,64.31v93.549a17.54,17.54,0,0,1-35.08,0V106.978a29.272,29.272,0,0,0-29.235-29.23H64.314a29.272,29.272,0,0,0-29.235,29.23V375.926a29.272,29.272,0,0,0,29.235,29.23h134.47a17.54,17.54,0,1,1,0,35.08Zm0,0" transform="translate(0 4.107)" fill="#6c757d"/>
  <path id="Path_931" data-name="Path 931" d="M450.192,163.08H17.54a17.54,17.54,0,0,1,0-35.08H450.192a17.54,17.54,0,1,1,0,35.08Zm0,0" transform="translate(0 12.319)" fill="#6c757d"/>
  <path id="Path_932" data-name="Path 932" d="M102.872,128.624a17.546,17.546,0,0,1-17.54-17.54V17.54a17.54,17.54,0,1,1,35.08,0v93.545A17.546,17.546,0,0,1,102.872,128.624Zm0,0" transform="translate(8.213)" fill="#6c757d"/>
  <path id="Path_933" data-name="Path 933" d="M326.872,128.624a17.546,17.546,0,0,1-17.54-17.54V17.54a17.54,17.54,0,1,1,35.08,0v93.545A17.546,17.546,0,0,1,326.872,128.624Zm0,0" transform="translate(29.771)" fill="#6c757d"/>
  <g id="Group_1548" data-name="Group 1548" transform="translate(257.253 257.253)">
    <path id="Path_934" data-name="Path 934" d="M386.678,538.691c-83.816,0-152.01-68.194-152.01-152.014s68.194-152.01,152.01-152.01,152.014,68.194,152.014,152.01S470.5,538.691,386.678,538.691Zm0-268.944a116.932,116.932,0,1,0,116.934,116.93A117.06,117.06,0,0,0,386.678,269.748Zm0,0" transform="translate(-234.668 -234.668)" fill="#6c757d"/>
    <path id="Path_935" data-name="Path 935" d="M374.872,462.372a17.546,17.546,0,0,1-17.54-17.54V316.208a17.54,17.54,0,0,1,35.08,0V444.832A17.546,17.546,0,0,1,374.872,462.372Zm0,0" transform="translate(-222.862 -228.508)" fill="#6c757d"/>
    <path id="Path_936" data-name="Path 936" d="M444.832,392.412H316.208a17.54,17.54,0,0,1,0-35.08H444.832a17.54,17.54,0,0,1,0,35.08Zm0,0" transform="translate(-228.508 -222.862)" fill="#6c757d"/>
  </g>
</svg>
