<svg xmlns="http://www.w3.org/2000/svg" width="54.639" height="54.64" viewBox="0 0 54.639 54.64">
  <g id="color-wheel" transform="translate(-0.001)">
    <path id="Path_289" data-name="Path 289" d="M0,27.32A27.319,27.319,0,1,1,27.319,54.64,27.319,27.319,0,0,1,0,27.32ZM27.319,43.657A16.337,16.337,0,1,0,10.983,27.32,16.337,16.337,0,0,0,27.319,43.657Zm0,0" transform="translate(0)" fill="#83d9ff"/>
    <path id="Path_290" data-name="Path 290" d="M256,410.839V399.857a16.289,16.289,0,0,0,5.912-1.1l3.758,10.324A27.258,27.258,0,0,1,256,410.839Zm0,0" transform="translate(-228.681 -356.2)" fill="#3fefef"/>
    <path id="Path_291" data-name="Path 291" d="M311.4,372.406a16.346,16.346,0,0,0,5.079-3.148l7.064,8.417a27.316,27.316,0,0,1-8.385,5.055Zm0,0" transform="translate(-278.17 -329.851)" fill="#1dd1d9"/>
    <path id="Path_292" data-name="Path 292" d="M359,330.02a16.414,16.414,0,0,0,3.578-4.688l9.519,5.5a27.414,27.414,0,0,1-6.035,7.608Zm0,0" transform="translate(-320.685 -290.613)" fill="#17b5ba"/>
    <path id="Path_293" data-name="Path 293" d="M404.891,204.277l10.829-1.91a27.552,27.552,0,0,1,.344,9.482l-10.829-1.908a16.636,16.636,0,0,0,.1-1.85,16.38,16.38,0,0,0-.448-3.814Zm0,0" transform="translate(-361.682 -180.771)" fill="#9be058"/>
    <path id="Path_294" data-name="Path 294" d="M384.3,126.43l9.52-5.5a27.15,27.15,0,0,1,3.506,8.69l-10.829,1.91A16.259,16.259,0,0,0,384.3,126.43Zm0,0" transform="translate(-343.289 -108.027)" fill="#c0ff66"/>
    <path id="Path_295" data-name="Path 295" d="M349.652,64.437l7.064-8.418a27.466,27.466,0,0,1,6.154,6.928l-9.52,5.5A16.445,16.445,0,0,0,349.652,64.437Zm0,0" transform="translate(-312.338 -50.041)" fill="#ffdf46"/>
    <path id="Path_296" data-name="Path 296" d="M171.484,1.525A27.249,27.249,0,0,1,180.5,0V10.983a16.318,16.318,0,0,0-5.263.866Zm0,0" transform="translate(-153.184)" fill="#fc3e81"/>
    <path id="Path_297" data-name="Path 297" d="M96.156,18.742a27.266,27.266,0,0,1,8.037-4.453h0l3.756,10.324a16.27,16.27,0,0,0-4.731,2.547Zm0,0" transform="translate(-85.895 -12.764)" fill="#f01054"/>
    <path id="Path_298" data-name="Path 298" d="M38.488,62.947a27.472,27.472,0,0,1,6.154-6.927l7.064,8.418a16.436,16.436,0,0,0-3.7,4.006Zm0,0" transform="translate(-34.381 -50.042)" fill="#7884ea"/>
    <path id="Path_299" data-name="Path 299" d="M2.41,275.248l10.829-1.908a16.245,16.245,0,0,0,1.664,5.549l-9.52,5.5a27.114,27.114,0,0,1-2.973-9.137Zm0,0" transform="translate(-2.153 -244.17)" fill="#1685fb"/>
    <path id="Path_300" data-name="Path 300" d="M30.266,330.829l9.519-5.5a16.421,16.421,0,0,0,3.579,4.688L36.3,338.437A27.428,27.428,0,0,1,30.266,330.829Zm0,0" transform="translate(-27.036 -290.613)" fill="#43a3f9"/>
    <path id="Path_301" data-name="Path 301" d="M86.813,377.675l7.064-8.417a16.337,16.337,0,0,0,5.079,3.148L95.2,382.73a27.32,27.32,0,0,1-8.385-5.055Zm0,0" transform="translate(-77.548 -329.851)" fill="#64bdff"/>
    <path id="Path_302" data-name="Path 302" d="M5.637,129.624a27.152,27.152,0,0,1,3.506-8.69l9.52,5.5a16.259,16.259,0,0,0-2.2,5.1Zm0,0" transform="translate(-5.035 -108.028)" fill="#4a5be5"/>
    <path id="Path_303" data-name="Path 303" d="M392.531,278.888a16.262,16.262,0,0,0,1.663-5.548l10.829,1.908a27.108,27.108,0,0,1-2.973,9.137Zm0,0" transform="translate(-350.642 -244.17)" fill="#1cc939"/>
    <path id="Path_304" data-name="Path 304" d="M0,208.091a27.341,27.341,0,0,1,.6-5.724l10.829,1.91a16.376,16.376,0,0,0-.448,3.814,16.633,16.633,0,0,0,.1,1.85L.257,211.85A27.546,27.546,0,0,1,0,208.091Zm0,0" transform="translate(0 -180.771)" fill="#364ec6"/>
    <path id="Path_305" data-name="Path 305" d="M305.316,24.613l3.758-10.324a27.253,27.253,0,0,1,8.037,4.454l-7.063,8.418A16.283,16.283,0,0,0,305.316,24.613Zm0,0" transform="translate(-272.734 -12.764)" fill="#f9b200"/>
    <path id="Path_306" data-name="Path 306" d="M256,10.983V0a27.257,27.257,0,0,1,9.021,1.525l-3.758,10.324A16.314,16.314,0,0,0,256,10.983Zm0,0" transform="translate(-228.681)" fill="#fd6096"/>
  </g>
</svg>
