<svg xmlns="http://www.w3.org/2000/svg" width="394" height="377.129" viewBox="0 0 394 377.129">
  <g id="create-folder" transform="translate(0 0)">
    <path id="Path_3" data-name="Path 3" d="M292.477,48.9H212.8a3.627,3.627,0,0,1-2.668-1.18L181.219,16.094A49.573,49.573,0,0,0,144.711,0H49.457A49.515,49.515,0,0,0,0,49.457V327.672a49.514,49.514,0,0,0,49.457,49.457H344.543A49.514,49.514,0,0,0,394,327.672V149.457A49.515,49.515,0,0,0,344.543,100h-2.609V98.359A49.515,49.515,0,0,0,292.477,48.9ZM53.926,363.129H49.457A35.5,35.5,0,0,1,14,327.672V49.457A35.5,35.5,0,0,1,49.457,14h95.254a35.55,35.55,0,0,1,26.172,11.535l28.91,31.637a17.67,17.67,0,0,0,13,5.73h79.68A35.5,35.5,0,0,1,327.93,98.36V100H138.844a49.515,49.515,0,0,0-49.457,49.461V327.672a35.5,35.5,0,0,1-35.461,35.457ZM344.543,114A35.5,35.5,0,0,1,380,149.457V327.672a35.5,35.5,0,0,1-35.457,35.457H88.375a49.333,49.333,0,0,0,15.012-35.457V149.457A35.495,35.495,0,0,1,138.844,114Zm0,0" fill="#6c757d"/>
    <path id="Path_4" data-name="Path 4" d="M191.691,245.57h43v43a7,7,0,0,0,14,0v-43h43a7,7,0,0,0,0-14h-43v-43a7,7,0,0,0-14,0v43h-43a7,7,0,0,0,0,14Zm0,0" fill="#6c757d"/>
  </g>
</svg>
