<svg xmlns="http://www.w3.org/2000/svg" width="346.803" height="427.001" viewBox="0 0 346.803 427.001">
  <g id="delete" transform="translate(0.003 0.002)">
    <path id="Path_2" data-name="Path 2" d="M232.4,154.7a10,10,0,0,0-10,10v189a10,10,0,0,0,20,0v-189A10,10,0,0,0,232.4,154.7Zm0,0" fill="#6c757d"/>
    <path id="Path_3" data-name="Path 3" d="M114.4,154.7a10,10,0,0,0-10,10v189a10,10,0,0,0,20,0v-189A10,10,0,0,0,114.4,154.7Zm0,0" fill="#6c757d"/>
    <path id="Path_4" data-name="Path 4" d="M28.4,127.121V373.5c0,14.563,5.34,28.238,14.668,38.051A49.246,49.246,0,0,0,78.8,427H268a49.233,49.233,0,0,0,35.73-15.449c9.328-9.812,14.668-23.488,14.668-38.051V127.121A38.2,38.2,0,0,0,308.6,52H257.4V39.5A39.28,39.28,0,0,0,217.8,0H129A39.28,39.28,0,0,0,89.4,39.5V52H38.2a38.2,38.2,0,0,0-9.8,75.121ZM268,407H78.8c-17.1,0-30.4-14.687-30.4-33.5V128h250V373.5c0,18.813-13.3,33.5-30.4,33.5ZM109.4,39.5A19.266,19.266,0,0,1,129,20h88.8a19.266,19.266,0,0,1,19.6,19.5V52h-128ZM38.2,72H308.6a18,18,0,0,1,0,36H38.2a18,18,0,0,1,0-36Zm0,0" fill="#6c757d"/>
    <path id="Path_5" data-name="Path 5" d="M173.4,154.7a10,10,0,0,0-10,10v189a10,10,0,0,0,20,0v-189A10,10,0,0,0,173.4,154.7Zm0,0" fill="#6c757d"/>
  </g>
</svg>
