<svg xmlns="http://www.w3.org/2000/svg" width="390.26" height="390.25" viewBox="0 0 390.26 390.25">
  <g id="edit" transform="translate(0 -0.005)">
    <g id="Group_1" data-name="Group 1">
      <path id="Path_1" data-name="Path 1" d="M387.335,77.03l-74.2-74.1a9.959,9.959,0,0,0-14.1,0l-62.9,62.8-195,194.6a10.205,10.205,0,0,0-3,4.4L.535,377.03a10.068,10.068,0,0,0,6.3,12.7,9.711,9.711,0,0,0,6.3,0l112.4-37.6a10.205,10.205,0,0,0,4.4-3l194.6-195,62.8-63A9.959,9.959,0,0,0,387.335,77.03Zm-361.5,287.4,26.1-78,51.9,51.9Zm96.5-36-60.5-60.5,181.3-181,60.2,60.2Zm195.1-195.4-60.1-60.2,48.8-48.7,60,60Z" fill="#6c757d"/>
    </g>
  </g>
</svg>
