<svg xmlns="http://www.w3.org/2000/svg" width="503.438" height="468.082" viewBox="0 0 503.438 468.082">
  <g id="close" transform="translate(-554.462 -163.069)">
    <g id="Group_58" data-name="Group 58" transform="translate(554.462 163.069)">
      <path id="Path_127" data-name="Path 127" d="M923.2,163.1c12.622,0,25.243.035,37.864-.014,7.073-.027,12.165,3.082,15.365,9.34s-.745,16.405-7.233,19.293a20.272,20.272,0,0,1-8.846,1.813c-6.515-.112-13.039.062-19.551-.086-2.284-.053-3.137.794-3.134,2.929q.019,13.5-.006,27c-.007,2.256,1.118,3.031,3.255,3.049,8.266.07,16.264,1.942,24.347,3.439a182.738,182.738,0,0,1,22.773,5.933,164.972,164.972,0,0,1,20.5,8.262c5.083,2.43,10.1,4.967,15.026,7.7a195.4,195.4,0,0,1,27.975,19.281A206.915,206.915,0,0,1,1081.2,300.8a220.64,220.64,0,0,1,13.3,18.711,191.554,191.554,0,0,1,17.867,34.948,197.615,197.615,0,0,1,8.531,28.468c2.194,9.444,3.175,19.006,4.293,28.586,1.155,9.89.874,19.821.373,29.667a188.035,188.035,0,0,1-3.319,25.333,197.364,197.364,0,0,1-5.938,23.979,202.257,202.257,0,0,1-12,29.139,210.64,210.64,0,0,1-16.923,27.708,202.491,202.491,0,0,1-26.526,29.785,193,193,0,0,1-29.945,23.025,213.7,213.7,0,0,1-32.434,16.477,190,190,0,0,1-36.024,10.612,193.3,193.3,0,0,1-30.089,3.411c-4.5.141-9.037.745-13.516.4-10.661-.822-21.329-1.442-31.91-3.415-6.339-1.18-12.666-2.491-18.852-4.139a128.889,128.889,0,0,1-18.713-6.4c-4.545-2-9.24-3.655-13.722-5.833a218,218,0,0,1-24.832-14.16A199.4,199.4,0,0,1,772.7,564.415,179.413,179.413,0,0,1,749.851,533.5a275.322,275.322,0,0,1-13.38-25.636c-3.615-8.168-3.172-13.069,1.748-18.875,6.4-7.546,20.084-6.445,24.745,3.8,3.327,7.315,6.665,14.6,10.688,21.581a164.922,164.922,0,0,0,14.717,21.814,182.023,182.023,0,0,0,23.444,24.049,164.194,164.194,0,0,0,21.865,15.634,181.547,181.547,0,0,0,33.93,15.731,185.765,185.765,0,0,0,27.382,7.117c13.59,2.51,27.449,2.67,41.185,1.8a173.372,173.372,0,0,0,21.62-3.256,174.25,174.25,0,0,0,101.236-62.631,164.252,164.252,0,0,0,18.012-28.558,192.866,192.866,0,0,0,10.241-24.581,160.981,160.981,0,0,0,7.473-34.187c.844-7.956,1.645-15.949,1.094-23.9-.511-7.389-.944-14.783-2.152-22.166a171.275,171.275,0,0,0-28.609-71.2,179.685,179.685,0,0,0-32.144-35.143,148.743,148.743,0,0,0-24.288-16.785,188.6,188.6,0,0,0-31.84-14.02,202.518,202.518,0,0,0-29.279-7.074,121.082,121.082,0,0,0-14.985-1.444,175.759,175.759,0,0,0-26.689.663,187.756,187.756,0,0,0-22.977,3.956,164.983,164.983,0,0,0-28.748,9.682A168.7,168.7,0,0,0,831.98,281.5a174.051,174.051,0,0,0-37.023,31.061c-2.6,2.906-5.114,5.691-9.019,6.916a14.688,14.688,0,0,1-14.725-3.059c-4.253-3.721-5.609-8.8-4.58-14.514,1.013-5.622,5.245-8.98,8.763-12.76a189.409,189.409,0,0,1,27.4-24.359,222.437,222.437,0,0,1,30.027-18.348,198.887,198.887,0,0,1,36.666-14.074,131.746,131.746,0,0,1,20.163-4.179c5.354-.626,10.607-2.027,16.074-1.846,1.389.047,2.225-.773,2.205-2.546q-.16-14.119,0-28.241c.022-1.947-.756-2.1-2.346-2.089-7.242.072-14.484.03-21.725.031a15.007,15.007,0,0,1-14.964-13.556c-.674-6.9,2.608-13.287,10.451-15.969a17.04,17.04,0,0,1,5.689-.9C897.757,163.119,910.482,163.1,923.2,163.1Z" transform="translate(-622.56 -163.069)" fill="#6c757d"/>
      <path id="Path_129" data-name="Path 129" d="M656.343,455.051c-28.966,0-57.93-.13-86.9.1a14.781,14.781,0,0,1-5.1-28.725,18.462,18.462,0,0,1,6.329-.718q85.347-.062,170.692-.066c5.457,0,10.477.643,14.135,5.348a14.732,14.732,0,0,1,2.009,15.429c-2.23,5.377-6.482,8.652-12.717,8.648Q700.569,455.031,656.343,455.051Z" transform="translate(-554.462 -262.608)" fill="#6c757d"/>
      <path id="Path_130" data-name="Path 130" d="M683.2,523.073q37.072,0,74.143-.008c6.647-.006,11.931,2.693,14.6,8.736a15.134,15.134,0,0,1-8.585,20.588c-3.556,1.409-6.875,1.293-10.319,1.3q-55.53.1-111.059.017c-11.32-.016-22.643-.1-33.956-.441-7.007-.212-12.365-3.291-14.7-10.75a14.154,14.154,0,0,1,4.392-15.546,15.411,15.411,0,0,1,10.413-3.892Q645.662,523.061,683.2,523.073Z" transform="translate(-568.909 -299.543)" fill="#6c757d"/>
      <path id="Path_131" data-name="Path 131" d="M715.443,650.91c-20.07,0-40.14-.107-60.209.055-7.568.062-13.328-4.184-15-10.824-2.2-8.748,2.775-17.185,11.692-18.621A43.732,43.732,0,0,1,658.91,621q58.036-.028,116.072.011c12.687.022,18.839,10.506,15.043,20.8a12.969,12.969,0,0,1-12.517,8.973c-10.34.219-20.687.107-31.031.117s-20.69,0-31.035,0Z" transform="translate(-586.781 -336.666)" fill="#6c757d"/>
      <rect id="Rectangle_9" data-name="Rectangle 9" width="36" height="213.791" rx="18" transform="translate(387.173 154.206) rotate(45)" fill="#6c757d"/>
      <rect id="Rectangle_10" data-name="Rectangle 10" width="36" height="213.791" rx="18" transform="translate(236 179.662) rotate(-45)" fill="#6c757d"/>
    </g>
  </g>
</svg>
