<svg xmlns="http://www.w3.org/2000/svg" width="37.924" height="53.771" viewBox="0 0 37.924 53.771">
  <g id="features_edit_icon" transform="translate(0 0)">
    <path id="features_edit_icon-2" data-name="features_edit_icon" d="M112.073.789A1.05,1.05,0,0,0,110.436.2c-1.049.768-6.328,4.72-7.188,7.081a5.239,5.239,0,0,0,.291,4.242,50.15,50.15,0,0,0-3.795,6.889V1.05A1.05,1.05,0,0,0,98.694,0h-8.4a1.05,1.05,0,0,0-1.05,1.05V21.634h-.189L87.26,14.656l0-.01L85.626,8.559h0a1.065,1.065,0,0,0-.034-.1c0-.01-.009-.02-.013-.031s-.02-.047-.032-.07l-.018-.033c-.012-.022-.024-.043-.038-.063l-.021-.031c-.014-.02-.03-.04-.045-.06l-.012-.016L79.18.808a1.05,1.05,0,0,0-1.831.476L75.466,10.8c0,.007,0,.014,0,.021,0,.027-.009.055-.011.082,0,.012,0,.023,0,.035s0,.052,0,.078,0,.024,0,.037,0,.053.007.08c0,.011,0,.022,0,.033a1.057,1.057,0,0,0,.023.11l1.629,6.08L78.2,21.68a3.15,3.15,0,0,0-.515,6.075V48.52a5.257,5.257,0,0,0,5.251,5.251h21A5.257,5.257,0,0,0,109.2,48.52V27.757a3.151,3.151,0,0,0-.457-6.066,51.8,51.8,0,0,0,1.346-7.72,5.222,5.222,0,0,0,3.033-3.1C113.979,8.509,112.4,2.058,112.073.789Zm-7.137,12.418a5.26,5.26,0,0,0,3.007,1.119,52.357,52.357,0,0,1-1.356,7.309h-6A60.851,60.851,0,0,1,104.937,13.207ZM91.342,2.1h6.3V4.516h-2.1a1.05,1.05,0,1,0,0,2.1h2.1v2.1h-2.1a1.05,1.05,0,1,0,0,2.1h2.1v2.1h-2.1a1.05,1.05,0,1,0,0,2.1h2.1v2.1h-2.1a1.05,1.05,0,1,0,0,2.1h2.1v2.416h-6.3ZM78.987,3.827,83.3,8.9a4.9,4.9,0,0,1-5.612,1.511Zm-.948,8.88a6.9,6.9,0,0,0,1.416.147,7.032,7.032,0,0,0,1.821-.241,6.959,6.959,0,0,0,2.85-1.538l1.1,4.109,1.658,6.45H80.359l-1.213-4.8,0-.014ZM107.1,48.52a3.154,3.154,0,0,1-3.151,3.151h-21A3.154,3.154,0,0,1,79.79,48.52V27.936H107.1Zm2.1-23.735a1.051,1.051,0,0,1-1.05,1.05H78.74a1.05,1.05,0,0,1,0-2.1h29.406A1.051,1.051,0,0,1,109.2,24.785Zm1.947-14.629a3.15,3.15,0,0,1-5.5.794h0A3.147,3.147,0,0,1,105.222,8c.394-1.081,2.955-3.386,5.185-5.139C111.02,5.65,111.536,9.077,111.144,10.156Z" transform="translate(-75.447 0)" fill="#0abc7b"/>
  </g>
</svg>
