<svg xmlns="http://www.w3.org/2000/svg" width="50.064" height="48.396" viewBox="0 0 50.064 48.396">
  <g id="features-hosting-icon" transform="translate(0 -1)">
    <path id="Path_53" data-name="Path 53" d="M9.755,7a3.755,3.755,0,1,0,3.755,3.755A3.759,3.759,0,0,0,9.755,7Zm0,5.841a2.086,2.086,0,1,1,2.086-2.086A2.088,2.088,0,0,1,9.755,12.841Z" transform="translate(-0.994 -0.994)" fill="#e92460"/>
    <circle id="Ellipse_11" data-name="Ellipse 11" cx="0.834" cy="0.834" r="0.834" transform="translate(40.885 7.675)" fill="#e92460"/>
    <circle id="Ellipse_12" data-name="Ellipse 12" cx="0.834" cy="0.834" r="0.834" transform="translate(37.548 7.675)" fill="#e92460"/>
    <circle id="Ellipse_13" data-name="Ellipse 13" cx="0.834" cy="0.834" r="0.834" transform="translate(42.554 10.178)" fill="#e92460"/>
    <circle id="Ellipse_14" data-name="Ellipse 14" cx="0.834" cy="0.834" r="0.834" transform="translate(39.217 10.178)" fill="#e92460"/>
    <circle id="Ellipse_15" data-name="Ellipse 15" cx="0.834" cy="0.834" r="0.834" transform="translate(34.21 7.675)" fill="#e92460"/>
    <circle id="Ellipse_16" data-name="Ellipse 16" cx="0.834" cy="0.834" r="0.834" transform="translate(35.879 10.178)" fill="#e92460"/>
    <circle id="Ellipse_17" data-name="Ellipse 17" cx="0.834" cy="0.834" r="0.834" transform="translate(30.873 7.675)" fill="#e92460"/>
    <circle id="Ellipse_18" data-name="Ellipse 18" cx="0.834" cy="0.834" r="0.834" transform="translate(32.541 10.178)" fill="#e92460"/>
    <circle id="Ellipse_19" data-name="Ellipse 19" cx="0.834" cy="0.834" r="0.834" transform="translate(27.535 7.675)" fill="#e92460"/>
    <circle id="Ellipse_20" data-name="Ellipse 20" cx="0.834" cy="0.834" r="0.834" transform="translate(29.204 10.178)" fill="#e92460"/>
    <path id="Path_54" data-name="Path 54" d="M50.064,14.677V4.845A3.849,3.849,0,0,0,46.219,1H3.845A3.849,3.849,0,0,0,0,4.845v9.832a3.824,3.824,0,0,0,1.483,3.011A3.824,3.824,0,0,0,0,20.7V30.53a3.849,3.849,0,0,0,3.845,3.846H24.2v6.759a4.185,4.185,0,0,0-3.253,3.253H.834a.834.834,0,0,0,0,1.669h20.11a4.172,4.172,0,0,0,8.175,0h20.11a.834.834,0,0,0,0-1.669H29.12a4.185,4.185,0,0,0-3.253-3.253V34.376H46.219a3.849,3.849,0,0,0,3.845-3.845V20.7a3.822,3.822,0,0,0-1.483-3.011A3.824,3.824,0,0,0,50.064,14.677ZM27.535,45.223a2.5,2.5,0,1,1-2.5-2.5A2.506,2.506,0,0,1,27.535,45.223ZM48.4,20.7V30.53a2.179,2.179,0,0,1-2.176,2.177H3.845a2.179,2.179,0,0,1-2.176-2.176V20.7a2.179,2.179,0,0,1,2.176-2.176H46.218A2.179,2.179,0,0,1,48.4,20.7ZM3.845,16.854a2.179,2.179,0,0,1-2.176-2.176V4.845A2.179,2.179,0,0,1,3.845,2.669H46.218A2.179,2.179,0,0,1,48.4,4.845v9.832a2.179,2.179,0,0,1-2.176,2.177Z" fill="#e92460"/>
    <path id="Path_55" data-name="Path 55" d="M9.755,33.51A3.755,3.755,0,1,0,6,29.755,3.759,3.759,0,0,0,9.755,33.51Zm0-5.841a2.086,2.086,0,1,1-2.086,2.086A2.088,2.088,0,0,1,9.755,27.669Z" transform="translate(-0.994 -4.14)" fill="#e92460"/>
    <circle id="Ellipse_21" data-name="Ellipse 21" cx="0.834" cy="0.834" r="0.834" transform="translate(40.885 23.529)" fill="#e92460"/>
    <circle id="Ellipse_22" data-name="Ellipse 22" cx="0.834" cy="0.834" r="0.834" transform="translate(37.548 23.529)" fill="#e92460"/>
    <circle id="Ellipse_23" data-name="Ellipse 23" cx="0.834" cy="0.834" r="0.834" transform="translate(42.554 26.032)" fill="#e92460"/>
    <circle id="Ellipse_24" data-name="Ellipse 24" cx="0.834" cy="0.834" r="0.834" transform="translate(39.217 26.032)" fill="#e92460"/>
    <circle id="Ellipse_25" data-name="Ellipse 25" cx="0.834" cy="0.834" r="0.834" transform="translate(34.21 23.529)" fill="#e92460"/>
    <circle id="Ellipse_26" data-name="Ellipse 26" cx="0.834" cy="0.834" r="0.834" transform="translate(35.879 26.032)" fill="#e92460"/>
    <circle id="Ellipse_27" data-name="Ellipse 27" cx="0.834" cy="0.834" r="0.834" transform="translate(30.873 23.529)" fill="#e92460"/>
    <circle id="Ellipse_28" data-name="Ellipse 28" cx="0.834" cy="0.834" r="0.834" transform="translate(32.541 26.032)" fill="#e92460"/>
    <circle id="Ellipse_29" data-name="Ellipse 29" cx="0.834" cy="0.834" r="0.834" transform="translate(27.535 23.529)" fill="#e92460"/>
    <circle id="Ellipse_30" data-name="Ellipse 30" cx="0.834" cy="0.834" r="0.834" transform="translate(29.204 26.032)" fill="#e92460"/>
  </g>
</svg>
