<svg xmlns="http://www.w3.org/2000/svg" width="45.629" height="47.189" viewBox="0 0 45.629 47.189">
  <g id="features-mobile-icon" transform="translate(-0.995)">
    <path id="Path_29" data-name="Path 29" d="M28.142,49a3.146,3.146,0,1,0,3.146,3.146A3.149,3.149,0,0,0,28.142,49Zm0,4.719a1.573,1.573,0,1,1,1.573-1.573A1.575,1.575,0,0,1,28.142,53.719Z" transform="translate(-5.123 -10.458)" fill="#6754e2"/>
    <path id="Path_30" data-name="Path 30" d="M25.783,4.573h3.146a.787.787,0,1,0,0-1.573H25.783a.787.787,0,1,0,0,1.573Z" transform="translate(-5.123 -0.64)" fill="#6754e2"/>
    <path id="Path_31" data-name="Path 31" d="M32.783,4.573h.787a.787.787,0,0,0,0-1.573h-.787a.787.787,0,1,0,0,1.573Z" transform="translate(-6.617 -0.64)" fill="#6754e2"/>
    <path id="Path_32" data-name="Path 32" d="M3.725,12.982l-.2-.743a.787.787,0,1,0-1.52.407l.2.743a.787.787,0,0,0,.759.583.8.8,0,0,0,.2-.027A.788.788,0,0,0,3.725,12.982Z" transform="translate(-0.21 -2.488)" fill="#6754e2"/>
    <path id="Path_33" data-name="Path 33" d="M1.869,9.23a.786.786,0,0,0,.708-.857c-.006-.064-.009-.126-.009-.19A1.947,1.947,0,0,1,2.6,7.83a.786.786,0,1,0-1.543-.3A3.458,3.458,0,0,0,1,8.184c0,.112.006.224.017.338a.786.786,0,0,0,.782.711A.607.607,0,0,0,1.869,9.23Z" transform="translate(0 -1.472)" fill="#6754e2"/>
    <path id="Path_34" data-name="Path 34" d="M6.255,22.428l-.2-.743a.787.787,0,0,0-1.52.407l.2.743a.787.787,0,0,0,.759.583.8.8,0,0,0,.2-.027A.785.785,0,0,0,6.255,22.428Z" transform="translate(-0.75 -4.504)" fill="#6754e2"/>
    <path id="Path_35" data-name="Path 35" d="M11.318,41.32l-.2-.743a.787.787,0,0,0-1.52.407l.2.743a.787.787,0,0,0,.759.583.8.8,0,0,0,.2-.027A.787.787,0,0,0,11.318,41.32Z" transform="translate(-1.831 -8.536)" fill="#6754e2"/>
    <path id="Path_36" data-name="Path 36" d="M4.99,17.7l-.2-.743a.787.787,0,0,0-1.52.407l.2.743a.787.787,0,0,0,.759.583.8.8,0,0,0,.2-.027A.786.786,0,0,0,4.99,17.7Z" transform="translate(-0.48 -3.495)" fill="#6754e2"/>
    <path id="Path_37" data-name="Path 37" d="M4.4,5.742a.8.8,0,0,0,.2-.027l.743-.2A.787.787,0,0,0,4.941,4L4.2,4.2a.787.787,0,0,0,.2,1.546Z" transform="translate(-0.559 -0.847)" fill="#6754e2"/>
    <path id="Path_38" data-name="Path 38" d="M9.125,4.475a.8.8,0,0,0,.2-.027l.743-.2a.787.787,0,0,0-.407-1.52l-.743.2a.787.787,0,0,0,.2,1.546Z" transform="translate(-1.567 -0.577)" fill="#6754e2"/>
    <path id="Path_39" data-name="Path 39" d="M10.052,36.6l-.2-.743a.787.787,0,1,0-1.52.407l.2.743a.787.787,0,0,0,1.52-.407Z" transform="translate(-1.561 -7.528)" fill="#6754e2"/>
    <path id="Path_40" data-name="Path 40" d="M7.521,27.151l-.2-.743a.787.787,0,1,0-1.52.407l.2.743a.787.787,0,0,0,.759.583.8.8,0,0,0,.2-.027A.787.787,0,0,0,7.521,27.151Z" transform="translate(-1.02 -5.512)" fill="#6754e2"/>
    <path id="Path_41" data-name="Path 41" d="M8.787,31.873l-.2-.743a.787.787,0,1,0-1.52.407l.2.743a.787.787,0,0,0,.759.583.8.8,0,0,0,.2-.027A.787.787,0,0,0,8.787,31.873Z" transform="translate(-1.291 -6.52)" fill="#6754e2"/>
    <path id="Path_42" data-name="Path 42" d="M55.692,16.406a.784.784,0,0,0-.964.556l-.2.743a.787.787,0,0,0,.556.964.8.8,0,0,0,.2.027.786.786,0,0,0,.759-.583l.2-.743A.788.788,0,0,0,55.692,16.406Z" transform="translate(-11.42 -3.496)" fill="#6754e2"/>
    <path id="Path_43" data-name="Path 43" d="M56.956,11.682a.785.785,0,0,0-.964.556l-.2.743a.787.787,0,0,0,.556.964.8.8,0,0,0,.2.027.786.786,0,0,0,.759-.583l.2-.743A.785.785,0,0,0,56.956,11.682Z" transform="translate(-11.69 -2.488)" fill="#6754e2"/>
    <path id="Path_44" data-name="Path 44" d="M58.5,7.534a.787.787,0,1,0-1.545.3,1.818,1.818,0,0,1,.033.354,1.881,1.881,0,0,1-.009.188.787.787,0,0,0,.708.858.607.607,0,0,0,.076,0,.787.787,0,0,0,.783-.711q.017-.171.017-.337A3.389,3.389,0,0,0,58.5,7.534Z" transform="translate(-11.941 -1.472)" fill="#6754e2"/>
    <path id="Path_45" data-name="Path 45" d="M49.3,4.249l.743.2a.8.8,0,0,0,.2.027.787.787,0,0,0,.2-1.546l-.743-.2a.787.787,0,1,0-.407,1.52Z" transform="translate(-10.186 -0.577)" fill="#6754e2"/>
    <path id="Path_46" data-name="Path 46" d="M54.024,5.516l.743.2a.8.8,0,0,0,.2.027.787.787,0,0,0,.2-1.546L54.43,4a.787.787,0,1,0-.407,1.52Z" transform="translate(-11.194 -0.847)" fill="#6754e2"/>
    <path id="Path_47" data-name="Path 47" d="M54.426,21.13a.786.786,0,0,0-.964.556l-.2.743a.787.787,0,0,0,.556.964.8.8,0,0,0,.2.027.786.786,0,0,0,.759-.583l.2-.743A.787.787,0,0,0,54.426,21.13Z" transform="translate(-11.15 -4.504)" fill="#6754e2"/>
    <path id="Path_48" data-name="Path 48" d="M40.4,35.2a.788.788,0,0,0-.964.556l-.15.56V36.18c0-.013-.007-.024-.008-.038v-3c0-.013.008-.024.008-.038v-.769c0-.013-.007-.024-.008-.038v-3c0-.013.008-.024.008-.038v-.769c0-.013-.007-.024-.008-.038v-3c0-.013.008-.024.008-.038v-.769c0-.013-.007-.024-.008-.038v-3c0-.013.008-.024.008-.038V20.8c0-.013-.007-.024-.008-.038v-3c0-.013.008-.024.008-.038V16.95c0-.013-.007-.024-.008-.038v-3c0-.013.008-.024.008-.038V13.1c0-.013-.007-.024-.008-.038v-3c0-.013.008-.024.008-.038v-.77c0-.013-.007-.024-.008-.038v-3c0-.013.008-.024.008-.038v-.77c0-.013-.007-.024-.008-.038V3.465A3.468,3.468,0,0,0,35.813,0H16a3.469,3.469,0,0,0-3.465,3.465V36.311l-.15-.56a.787.787,0,1,0-1.52.407l.2.743a.786.786,0,0,0,1.472.13V38.9a.751.751,0,0,0-.118.013.787.787,0,0,0-.556.964l.2.743a.779.779,0,0,0,.475.522v2.586A3.469,3.469,0,0,0,16,47.189H35.813a3.469,3.469,0,0,0,3.465-3.465V41.142a.777.777,0,0,0,.483-.525l.2-.743a.787.787,0,0,0-.556-.964.758.758,0,0,0-.126-.013V37.039a.052.052,0,0,0,0-.012.787.787,0,0,0,1.475-.125l.2-.743A.782.782,0,0,0,40.4,35.2ZM14.109,6.293h23.6V36.182h-23.6V6.293ZM16,1.573H35.813A1.894,1.894,0,0,1,37.7,3.465V4.719h-23.6V3.465A1.9,1.9,0,0,1,16,1.573ZM35.813,45.621H16a1.894,1.894,0,0,1-1.892-1.892V37.755h23.6v5.974A1.894,1.894,0,0,1,35.813,45.621Z" transform="translate(-2.101)" fill="#6754e2"/>
    <path id="Path_49" data-name="Path 49" d="M50.629,35.3a.783.783,0,0,0-.964.556l-.2.743a.787.787,0,0,0,.556.964.8.8,0,0,0,.2.027A.786.786,0,0,0,50.986,37l.2-.743A.785.785,0,0,0,50.629,35.3Z" transform="translate(-10.34 -7.528)" fill="#6754e2"/>
    <path id="Path_50" data-name="Path 50" d="M49.364,40.02a.783.783,0,0,0-.964.556l-.2.743a.787.787,0,0,0,.556.964.8.8,0,0,0,.2.027.786.786,0,0,0,.759-.583l.2-.743A.788.788,0,0,0,49.364,40.02Z" transform="translate(-10.07 -8.536)" fill="#6754e2"/>
    <path id="Path_51" data-name="Path 51" d="M51.894,30.574a.783.783,0,0,0-.963.556l-.2.743a.787.787,0,0,0,1.52.407l.2-.743A.788.788,0,0,0,51.894,30.574Z" transform="translate(-10.61 -6.52)" fill="#6754e2"/>
    <path id="Path_52" data-name="Path 52" d="M53.16,25.852a.785.785,0,0,0-.964.556l-.2.743a.787.787,0,0,0,.556.964.8.8,0,0,0,.2.027.786.786,0,0,0,.759-.583l.2-.743A.786.786,0,0,0,53.16,25.852Z" transform="translate(-10.88 -5.512)" fill="#6754e2"/>
  </g>
</svg>
