<svg xmlns="http://www.w3.org/2000/svg" width="54.555" height="42.891" viewBox="0 0 54.555 42.891">
  <g id="features-live-supporticon-icon" transform="translate(0 -0.5)">
    <path id="Path_56" data-name="Path 56" d="M65.824,48.4c-.019-.019-.04-.037-.059-.056s-.045-.044-.068-.065-.036-.031-.053-.046-.052-.047-.08-.069l-.05-.039c-.028-.023-.057-.047-.087-.068l-.054-.038c-.029-.021-.058-.042-.088-.062l-.044-.028c-.034-.022-.068-.044-.1-.065l-.024-.013c-.042-.024-.083-.049-.126-.071l-.018-.009c-.045-.024-.09-.047-.136-.069l-.017-.007c-.047-.022-.093-.042-.141-.062l-.011,0c-.1-.042-.206-.08-.312-.111l-.033-.009c-.044-.013-.088-.025-.133-.037h0c-.054-.013-.109-.026-.164-.037l-.042-.007c-.043-.008-.086-.016-.129-.022l-.067-.008-.106-.013c-.035,0-.072-.005-.108-.008l-.067,0c-.059,0-.118,0-.177,0A3.54,3.54,0,0,0,59.789,50.9v2.284a.8.8,0,0,0,.794.794h5.483a.8.8,0,0,0,.794-.794V50.9a3.507,3.507,0,0,0-1.035-2.5Zm-.553,3.989H61.376V50.9a1.947,1.947,0,0,1,3.893,0Zm0,0" transform="translate(-51.872 -40.658)" fill="#ffba00"/>
    <path id="Path_57" data-name="Path 57" d="M251.035,47.359A3.54,3.54,0,0,0,247.5,50.9v2.284a.8.8,0,0,0,.794.794h5.482a.794.794,0,0,0,.795-.794V50.9a3.536,3.536,0,0,0-3.535-3.535Zm1.946,5.025h-3.894V50.9a1.946,1.946,0,1,1,3.893,0Zm0,0" transform="translate(-214.727 -40.654)" fill="#ffba00"/>
    <path id="Path_58" data-name="Path 58" d="M144.693,118.359H133.728a.8.8,0,0,0-.794.794,6.277,6.277,0,0,0,12.554,0A.794.794,0,0,0,144.693,118.359Zm-2.168,4.109a4.687,4.687,0,0,1-7.936-2.52h9.243a4.656,4.656,0,0,1-1.307,2.52Zm0,0" transform="translate(-115.331 -102.252)" fill="#ffba00"/>
    <path id="Path_59" data-name="Path 59" d="M42,37.473H35.355a5.123,5.123,0,1,0,0,1.589H42a9.656,9.656,0,0,0,9.646-9.646v-7.7A7.642,7.642,0,0,0,47.759,8.124V5.407A4.912,4.912,0,0,0,42.853.5H4.907A4.912,4.912,0,0,0,0,5.407V26.04a4.913,4.913,0,0,0,4.907,4.907H6.58v8.966a.794.794,0,0,0,1.323.593l10.74-9.559H42.853A4.913,4.913,0,0,0,47.76,26.04V23.323a7.591,7.591,0,0,0,2.3-.634v6.728A8.066,8.066,0,0,1,42,37.473ZM30.293,41.8a3.534,3.534,0,1,1,3.534-3.534A3.533,3.533,0,0,1,30.293,41.8ZM46.17,26.04a3.322,3.322,0,0,1-3.318,3.318H18.34a.794.794,0,0,0-.528.2L8.169,38.141V30.152a.794.794,0,0,0-.794-.794H4.907A3.322,3.322,0,0,1,1.589,26.04V5.407A3.321,3.321,0,0,1,4.907,2.089H42.852a3.322,3.322,0,0,1,3.318,3.318ZM47.759,9.726a6.058,6.058,0,0,1,0,11.995Zm0,0" fill="#ffba00"/>
  </g>
</svg>
