<svg xmlns="http://www.w3.org/2000/svg" width="14.086" height="14.416" viewBox="0 0 14.086 14.416">
  <path id="google-plus-icon" d="M57.694,100.979a7.371,7.371,0,0,1,.115-10.317,7.072,7.072,0,0,1,7.681-1.49l1.032.573,1.146.8-1.834,1.834-.688-.458a4.378,4.378,0,0,0-5.388.688,4.812,4.812,0,0,0,0,6.649,4.432,4.432,0,0,0,6.42,0,3.659,3.659,0,0,0,1.032-1.834V97.2H63.081V94.9h6.534l.115.573v1.6a6.4,6.4,0,0,1-1.72,4.012A7.6,7.6,0,0,1,57.694,100.979Z" transform="translate(-55.643 -88.641)" fill="#fff"/>
</svg>
