<svg xmlns="http://www.w3.org/2000/svg" width="28.746" height="28.745" viewBox="0 0 28.746 28.745">
  <g id="laguage-icon" transform="translate(0 0)">
    <path id="Path_20" data-name="Path 20" d="M30.459,42.079H35.17a25.77,25.77,0,0,1,.9-6.464h-3.09a.459.459,0,0,1,0-.917h3.371a14.458,14.458,0,0,1,1.869-3.832.459.459,0,1,1,.747.533,13.242,13.242,0,0,0-1.649,3.3h4.759V30.459a.459.459,0,0,1,.917,0V34.7h4.759a13.242,13.242,0,0,0-1.649-3.3.459.459,0,0,1,.747-.533A14.46,14.46,0,0,1,48.722,34.7h3.371a.459.459,0,0,1,0,.917H49a25.775,25.775,0,0,1,.9,6.464h4.711a.459.459,0,1,1,0,.917H49.906a25.77,25.77,0,0,1-.9,6.464h3.09a.459.459,0,1,1,0,.917H48.722a14.458,14.458,0,0,1-1.869,3.833.459.459,0,1,1-.747-.533,13.241,13.241,0,0,0,1.65-3.3H43v4.239a.459.459,0,0,1-.917,0V50.378H37.32a13.238,13.238,0,0,0,1.65,3.3.459.459,0,1,1-.747.533,14.46,14.46,0,0,1-1.869-3.833H32.984a.459.459,0,0,1,0-.917h3.09A25.77,25.77,0,0,1,35.17,43H30.459a.459.459,0,1,1,0-.917Zm6.566-6.464a24.661,24.661,0,0,0-.937,6.464h5.992V35.615Zm11.026,0H43v6.464h5.992A24.663,24.663,0,0,0,48.051,35.615Zm0,13.846A24.661,24.661,0,0,0,48.988,43H43v6.464Zm-11.026,0h5.054V43H36.088A24.662,24.662,0,0,0,37.025,49.461Z" transform="translate(-28.165 -28.165)"/>
    <path id="Path_21" data-name="Path 21" d="M4.21,4.21A14.373,14.373,0,0,1,26.375,22.282l1.756,5.269a.459.459,0,0,1-.58.58l-5.269-1.756A14.373,14.373,0,0,1,4.21,4.21ZM14.373,27.828a13.382,13.382,0,0,0,7.582-2.338.459.459,0,0,1,.4-.056l4.612,1.537-1.538-4.612a.459.459,0,0,1,.056-.4,13.456,13.456,0,1,0-11.117,5.874Z"/>
  </g>
</svg>
