<svg xmlns="http://www.w3.org/2000/svg" width="397.224" height="89.584" viewBox="0 0 397.224 89.584">
  <g id="logo" transform="translate(0 -0.046)">
    <g id="Group_1217" data-name="Group 1217" transform="translate(32.429 40.051)">
      <g id="Group_1216" data-name="Group 1216">
        <path id="Path_1583" data-name="Path 1583" d="M263.053,404.7a17.778,17.778,0,0,1,5.674.774,8.822,8.822,0,0,1,3.636,2.218A8.063,8.063,0,0,1,274.3,411.2a17.479,17.479,0,0,1,.567,4.59v15.989c-1.1.245-2.63.529-4.59.851a44.6,44.6,0,0,1-7.118.49,22.6,22.6,0,0,1-4.771-.464,10.245,10.245,0,0,1-3.688-1.522,7.026,7.026,0,0,1-2.373-2.759,9.464,9.464,0,0,1-.825-4.178,7.938,7.938,0,0,1,.954-4.023,7.341,7.341,0,0,1,2.553-2.63,11.537,11.537,0,0,1,3.662-1.418,20.26,20.26,0,0,1,4.281-.438,23.33,23.33,0,0,1,2.656.129,11.731,11.731,0,0,1,1.883.335v-.709a4.27,4.27,0,0,0-1.186-3.146c-.787-.787-2.166-1.186-4.126-1.186a25.785,25.785,0,0,0-3.868.284,16.521,16.521,0,0,0-3.3.8l-.98-6.189c.451-.142,1.006-.284,1.676-.438s1.405-.3,2.192-.413,1.625-.219,2.5-.309A25.789,25.789,0,0,1,263.053,404.7Zm.619,22.5c.761,0,1.483-.013,2.166-.052s1.238-.09,1.65-.155v-5.828c-.309-.064-.774-.142-1.393-.206a16.65,16.65,0,0,0-1.7-.1,14.505,14.505,0,0,0-2.037.129,5.323,5.323,0,0,0-1.676.49,2.911,2.911,0,0,0-1.135.98,2.765,2.765,0,0,0-.413,1.547,2.632,2.632,0,0,0,1.212,2.5A6.654,6.654,0,0,0,263.672,427.2Z" transform="translate(-251.5 -392.528)" fill="#ec5f65"/>
        <path id="Path_1584" data-name="Path 1584" d="M490.54,434.112a10.578,10.578,0,0,0,4.771-.954,3.335,3.335,0,0,0,1.883-3.224,4.73,4.73,0,0,0-.335-1.857,3.615,3.615,0,0,0-1.109-1.393,9.445,9.445,0,0,0-2.037-1.186c-.838-.374-1.883-.825-3.12-1.341-.993-.413-1.947-.838-2.837-1.264a11.432,11.432,0,0,1-2.373-1.5,6.643,6.643,0,0,1-1.65-2.037,6.17,6.17,0,0,1-.619-2.888,6.468,6.468,0,0,1,2.45-5.261,10.321,10.321,0,0,1,6.731-2.012,18.31,18.31,0,0,1,4.513.464,13.841,13.841,0,0,1,2.5.825l-.774,2.992a21.153,21.153,0,0,0-2.089-.825,13.576,13.576,0,0,0-4.307-.516,9.472,9.472,0,0,0-2.14.232,5.792,5.792,0,0,0-1.779.722,3.786,3.786,0,0,0-1.238,1.238,3.418,3.418,0,0,0-.464,1.831,3.948,3.948,0,0,0,.413,1.857,4.043,4.043,0,0,0,1.212,1.367,10.2,10.2,0,0,0,1.96,1.109c.774.348,1.663.722,2.656,1.135,1.032.413,2.024.825,2.966,1.264a10.771,10.771,0,0,1,2.5,1.547,7.33,7.33,0,0,1,1.754,2.166,6.645,6.645,0,0,1,.67,3.172,6.2,6.2,0,0,1-2.708,5.467,12.908,12.908,0,0,1-7.4,1.857,18.456,18.456,0,0,1-5.364-.593,21.638,21.638,0,0,1-2.476-.9l.877-3.043a6.075,6.075,0,0,0,.671.335c.348.155.812.322,1.393.516a14.8,14.8,0,0,0,2.089.49A17.911,17.911,0,0,0,490.54,434.112Z" transform="translate(-452.888 -396.447)" fill="#3c3c3b"/>
        <path id="Path_1585" data-name="Path 1585" d="M683.653,446.636H680.3V411.344a29.251,29.251,0,0,1,3.817-.98A30.8,30.8,0,0,1,690,409.9a14.412,14.412,0,0,1,5.338.954,11.5,11.5,0,0,1,4.126,2.759A12.541,12.541,0,0,1,702.143,418a16.793,16.793,0,0,1,.954,5.828,18.809,18.809,0,0,1-.8,5.6,12.445,12.445,0,0,1-2.347,4.384,10.7,10.7,0,0,1-3.791,2.863,12.238,12.238,0,0,1-5.132,1.032,12.544,12.544,0,0,1-4.565-.748,11.844,11.844,0,0,1-2.811-1.418Zm0-14.339a10.028,10.028,0,0,0,1.161.774,12,12,0,0,0,1.625.774,12.677,12.677,0,0,0,2.011.593,10.837,10.837,0,0,0,2.269.232,9.124,9.124,0,0,0,4.152-.851,7.194,7.194,0,0,0,2.708-2.321,9.9,9.9,0,0,0,1.5-3.456,18.421,18.421,0,0,0,.464-4.2q0-5.261-2.63-8.072a9.1,9.1,0,0,0-6.963-2.811,27.618,27.618,0,0,0-4,.232,15.257,15.257,0,0,0-2.3.49Z" transform="translate(-625.009 -397.057)" fill="#3c3c3b"/>
        <path id="Path_1586" data-name="Path 1586" d="M933.545,423.177a17.1,17.1,0,0,1-.9,5.725,12.836,12.836,0,0,1-2.527,4.384,11.526,11.526,0,0,1-3.843,2.811,12.438,12.438,0,0,1-9.8,0,11.526,11.526,0,0,1-3.843-2.811A12.838,12.838,0,0,1,910.1,428.9a18.608,18.608,0,0,1,0-11.45,13.211,13.211,0,0,1,2.527-4.41,11.255,11.255,0,0,1,3.843-2.837,12.439,12.439,0,0,1,9.8,0,11.254,11.254,0,0,1,3.843,2.837,13.208,13.208,0,0,1,2.527,4.41A17.426,17.426,0,0,1,933.545,423.177Zm-3.559,0a12.57,12.57,0,0,0-2.321-7.969,8.158,8.158,0,0,0-12.585,0,14.8,14.8,0,0,0,0,15.912,8.2,8.2,0,0,0,12.585,0A12.493,12.493,0,0,0,929.986,423.177Z" transform="translate(-824.394 -396.447)" fill="#3c3c3b"/>
        <path id="Path_1587" data-name="Path 1587" d="M1171.478,409.9a18.525,18.525,0,0,1,3.12.258,9.492,9.492,0,0,1,2.037.516l-.671,2.888a7.223,7.223,0,0,0-1.676-.438,19.069,19.069,0,0,0-3.327-.232,15.756,15.756,0,0,0-3.482.309,9.133,9.133,0,0,0-1.728.516v23.365H1162.4V411.654a26.254,26.254,0,0,1,3.559-1.16A22.508,22.508,0,0,1,1171.478,409.9Z" transform="translate(-1044.945 -397.057)" fill="#3c3c3b"/>
        <path id="Path_1588" data-name="Path 1588" d="M1321.753,356.759h10.625V359.6h-10.625v14.184a14.406,14.406,0,0,0,.387,3.688,5.224,5.224,0,0,0,1.109,2.192,3.485,3.485,0,0,0,1.754,1.032,9.544,9.544,0,0,0,2.269.258,9.912,9.912,0,0,0,3.4-.49,14.34,14.34,0,0,0,2.012-.9l.825,2.785a13.66,13.66,0,0,1-6.447,1.651,11.749,11.749,0,0,1-4.152-.645,5.949,5.949,0,0,1-2.682-1.96,8.007,8.007,0,0,1-1.418-3.275,23.055,23.055,0,0,1-.413-4.642V348.919l3.353-.619Z" transform="translate(-1180.83 -343.4)" fill="#3c3c3b"/>
        <path id="Path_1589" data-name="Path 1589" d="M1466.4,419.087a16.11,16.11,0,0,1,.954-5.545,12.976,12.976,0,0,1,7.144-7.608,14.365,14.365,0,0,1,5.88-1.135,18.945,18.945,0,0,1,3.971.387,19.779,19.779,0,0,1,3.507,1.109l-1.6,6.138a19.887,19.887,0,0,0-2.373-.722A12.4,12.4,0,0,0,1481,411.4a6.106,6.106,0,0,0-5.08,2.115,8.665,8.665,0,0,0-1.676,5.57,9.054,9.054,0,0,0,1.573,5.673q1.567,2.012,5.493,2.012a19.407,19.407,0,0,0,2.991-.258,12.594,12.594,0,0,0,2.94-.825l1.083,6.292a17.935,17.935,0,0,1-3.353.98,22.464,22.464,0,0,1-4.436.413,16.792,16.792,0,0,1-6.4-1.109,11.526,11.526,0,0,1-6.937-7.53A19.351,19.351,0,0,1,1466.4,419.087Z" transform="translate(-1309.746 -392.615)" fill="#ec5f65"/>
        <path id="Path_1590" data-name="Path 1590" d="M1691.166,419.035a17.642,17.642,0,0,1-.928,5.854,12.659,12.659,0,0,1-2.682,4.539,12.072,12.072,0,0,1-4.2,2.914,14.137,14.137,0,0,1-5.493,1.032,13.966,13.966,0,0,1-5.441-1.032,12.069,12.069,0,0,1-4.2-2.914,13.344,13.344,0,0,1-2.734-4.539,16.7,16.7,0,0,1-.98-5.854,16.214,16.214,0,0,1,1.006-5.828,13.215,13.215,0,0,1,2.785-4.487,12.405,12.405,0,0,1,4.229-2.888,14.462,14.462,0,0,1,10.728,0,12.18,12.18,0,0,1,4.2,2.888,13.1,13.1,0,0,1,2.734,4.487A16.744,16.744,0,0,1,1691.166,419.035Zm-7.84,0a9.685,9.685,0,0,0-1.418-5.6,4.643,4.643,0,0,0-4.049-2.037,4.719,4.719,0,0,0-4.075,2.037,9.49,9.49,0,0,0-1.444,5.6,9.747,9.747,0,0,0,1.444,5.648,4.672,4.672,0,0,0,4.075,2.089,4.6,4.6,0,0,0,4.049-2.089A9.95,9.95,0,0,0,1683.326,419.035Z" transform="translate(-1482.303 -392.615)" fill="#ec5f65"/>
        <path id="Path_1591" data-name="Path 1591" d="M1922.853,404.7a17.777,17.777,0,0,1,5.674.774,8.822,8.822,0,0,1,3.636,2.218,8.061,8.061,0,0,1,1.934,3.507,17.475,17.475,0,0,1,.567,4.59v15.989c-1.1.245-2.63.529-4.59.851a44.6,44.6,0,0,1-7.118.49,22.6,22.6,0,0,1-4.771-.464,10.245,10.245,0,0,1-3.688-1.522,7.027,7.027,0,0,1-2.373-2.759,9.464,9.464,0,0,1-.825-4.178,7.938,7.938,0,0,1,.954-4.023,7.342,7.342,0,0,1,2.553-2.63,11.537,11.537,0,0,1,3.662-1.418,20.259,20.259,0,0,1,4.281-.438,23.33,23.33,0,0,1,2.656.129,11.729,11.729,0,0,1,1.883.335v-.709a4.27,4.27,0,0,0-1.186-3.146c-.787-.787-2.166-1.186-4.126-1.186a25.785,25.785,0,0,0-3.868.284,16.518,16.518,0,0,0-3.3.8l-.98-6.189c.451-.142,1.006-.284,1.676-.438s1.406-.3,2.192-.413,1.625-.219,2.5-.309A25.791,25.791,0,0,1,1922.853,404.7Zm.619,22.5c.761,0,1.483-.013,2.166-.052s1.238-.09,1.651-.155v-5.828c-.309-.064-.774-.142-1.392-.206a16.65,16.65,0,0,0-1.7-.1,14.505,14.505,0,0,0-2.037.129,5.323,5.323,0,0,0-1.676.49,2.912,2.912,0,0,0-1.135.98,2.765,2.765,0,0,0-.413,1.547,2.632,2.632,0,0,0,1.212,2.5A6.654,6.654,0,0,0,1923.472,427.2Z" transform="translate(-1697.279 -392.528)" fill="#ec5f65"/>
        <path id="Path_1592" data-name="Path 1592" d="M2144.5,419.087a16.11,16.11,0,0,1,.954-5.545,12.977,12.977,0,0,1,7.144-7.608,14.365,14.365,0,0,1,5.88-1.135,18.945,18.945,0,0,1,3.971.387,19.778,19.778,0,0,1,3.507,1.109l-1.6,6.138a19.914,19.914,0,0,0-2.373-.722,12.4,12.4,0,0,0-2.888-.309,6.106,6.106,0,0,0-5.08,2.115,8.665,8.665,0,0,0-1.676,5.57,9.052,9.052,0,0,0,1.573,5.673q1.567,2.012,5.493,2.012a19.411,19.411,0,0,0,2.991-.258,12.594,12.594,0,0,0,2.94-.825l1.083,6.292a17.931,17.931,0,0,1-3.353.98,22.462,22.462,0,0,1-4.436.413,16.792,16.792,0,0,1-6.4-1.109,11.524,11.524,0,0,1-6.937-7.53A19.351,19.351,0,0,1,2144.5,419.087Z" transform="translate(-1900.41 -392.615)" fill="#ec5f65"/>
        <path id="Path_1593" data-name="Path 1593" d="M2362.5,350.337v-38.8l7.685-1.238v13a16.529,16.529,0,0,1,1.986-.49,12.468,12.468,0,0,1,2.347-.232,14.391,14.391,0,0,1,5.493.9,8.636,8.636,0,0,1,3.507,2.553,9.872,9.872,0,0,1,1.857,3.92,21.776,21.776,0,0,1,.542,5.055v15.318h-7.685V335.947c0-2.476-.322-4.229-.954-5.261s-1.818-1.547-3.533-1.547a10.263,10.263,0,0,0-1.934.181q-.909.174-1.625.387v20.631H2362.5Z" transform="translate(-2090.3 -310.3)" fill="#ec5f65"/>
      </g>
    </g>
    <g id="Group_1218" data-name="Group 1218" transform="translate(344.641 44.436)">
      <path id="Path_1594" data-name="Path 1594" d="M2676.837,372.78a3.245,3.245,0,0,1-1.225-.219,2.241,2.241,0,0,1-.89-.632,2.944,2.944,0,0,1-.542-.993,4.5,4.5,0,0,1,.013-2.566,2.758,2.758,0,0,1,.554-.993,2.425,2.425,0,0,1,.877-.645,2.724,2.724,0,0,1,1.148-.232,5.158,5.158,0,0,1,.916.077,2.479,2.479,0,0,1,.657.206l-.193.645a2.221,2.221,0,0,0-.516-.181,3.2,3.2,0,0,0-.774-.064,1.807,1.807,0,0,0-1.509.645,2.841,2.841,0,0,0-.516,1.831,3.853,3.853,0,0,0,.116.98,2.005,2.005,0,0,0,.374.761,1.772,1.772,0,0,0,.671.5,2.551,2.551,0,0,0,1.006.181,2.46,2.46,0,0,0,.812-.116,3.488,3.488,0,0,0,.477-.193l.167.645a3.077,3.077,0,0,1-.657.232A3.5,3.5,0,0,1,2676.837,372.78Z" transform="translate(-2673.845 -363.637)" fill="#3c3c3b"/>
      <path id="Path_1595" data-name="Path 1595" d="M2729.88,369.659a3.712,3.712,0,0,1-.206,1.289,2.993,2.993,0,0,1-.567.993,2.628,2.628,0,0,1-.864.632,2.569,2.569,0,0,1-1.1.232,2.611,2.611,0,0,1-1.973-.864,2.675,2.675,0,0,1-.567-.993,4.133,4.133,0,0,1,0-2.579,2.781,2.781,0,0,1,.567-.993,2.659,2.659,0,0,1,.864-.645,2.585,2.585,0,0,1,1.109-.232,2.529,2.529,0,0,1,1.1.232,2.493,2.493,0,0,1,.864.645,2.785,2.785,0,0,1,.567.993A4.036,4.036,0,0,1,2729.88,369.659Zm-.8,0a2.821,2.821,0,0,0-.516-1.792,1.731,1.731,0,0,0-1.418-.671,1.7,1.7,0,0,0-1.418.671,3.371,3.371,0,0,0,0,3.585,1.686,1.686,0,0,0,1.418.658,1.721,1.721,0,0,0,1.418-.658A2.821,2.821,0,0,0,2729.081,369.659Z" transform="translate(-2717.746 -363.637)" fill="#3c3c3b"/>
      <path id="Path_1596" data-name="Path 1596" d="M2787.456,366.6a2.565,2.565,0,0,1,1.006.168,1.716,1.716,0,0,1,1.044,1.16,3.2,3.2,0,0,1,.116.877v3.778a2.674,2.674,0,0,1-.335.077c-.142.026-.322.052-.516.09s-.413.052-.645.077-.477.026-.722.026a3.714,3.714,0,0,1-.877-.1,1.751,1.751,0,0,1-.7-.335,1.71,1.71,0,0,1-.464-.58,1.951,1.951,0,0,1-.167-.864,1.87,1.87,0,0,1,.18-.838,1.715,1.715,0,0,1,.516-.58,2.371,2.371,0,0,1,.8-.335,4.916,4.916,0,0,1,1.006-.1,3.387,3.387,0,0,1,.348.013,3.245,3.245,0,0,1,.348.052c.116.026.206.039.3.064s.142.039.168.052v-.374a3.126,3.126,0,0,0-.052-.606,1.262,1.262,0,0,0-.207-.529,1.283,1.283,0,0,0-.438-.387,1.581,1.581,0,0,0-.748-.142,3.68,3.68,0,0,0-.98.09c-.219.064-.374.116-.477.155l-.1-.658a3.211,3.211,0,0,1,.606-.181A7.111,7.111,0,0,1,2787.456,366.6Zm.064,5.583c.3,0,.555-.013.774-.026a3.171,3.171,0,0,0,.567-.077v-2.115a2.241,2.241,0,0,0-.4-.116,3.788,3.788,0,0,0-.761-.064,4.692,4.692,0,0,0-.58.039,1.855,1.855,0,0,0-.554.168,1.116,1.116,0,0,0-.413.361,1.1,1.1,0,0,0-.168.619,1.275,1.275,0,0,0,.116.567.989.989,0,0,0,.31.374,1.558,1.558,0,0,0,.49.206A2.225,2.225,0,0,0,2787.521,372.183Z" transform="translate(-2770.707 -363.725)" fill="#3c3c3b"/>
      <path id="Path_1597" data-name="Path 1597" d="M2843.437,372.78a3.245,3.245,0,0,1-1.225-.219,2.242,2.242,0,0,1-.89-.632,2.944,2.944,0,0,1-.542-.993,4.5,4.5,0,0,1,.013-2.566,2.754,2.754,0,0,1,.554-.993,2.425,2.425,0,0,1,.877-.645,2.723,2.723,0,0,1,1.147-.232,5.156,5.156,0,0,1,.916.077,2.478,2.478,0,0,1,.658.206l-.193.645a2.221,2.221,0,0,0-.516-.181,3.2,3.2,0,0,0-.774-.064,1.808,1.808,0,0,0-1.509.645,2.841,2.841,0,0,0-.516,1.831,3.853,3.853,0,0,0,.116.98,2,2,0,0,0,.374.761,1.77,1.77,0,0,0,.671.5,2.549,2.549,0,0,0,1.006.181,2.462,2.462,0,0,0,.812-.116,3.468,3.468,0,0,0,.477-.193l.168.645a3.091,3.091,0,0,1-.658.232A3.566,3.566,0,0,1,2843.437,372.78Z" transform="translate(-2818.964 -363.637)" fill="#3c3c3b"/>
      <path id="Path_1598" data-name="Path 1598" d="M2893.8,353.313v-8.871l.748-.142v3.185a5.141,5.141,0,0,1,.761-.219,3.906,3.906,0,0,1,.761-.077,3.031,3.031,0,0,1,1.161.193,1.835,1.835,0,0,1,.748.567,2.369,2.369,0,0,1,.387.877,5.094,5.094,0,0,1,.116,1.122V353.3h-.748v-3.108a5.23,5.23,0,0,0-.09-1.083,1.851,1.851,0,0,0-.3-.722,1.133,1.133,0,0,0-.542-.4,2.852,2.852,0,0,0-1.277-.077q-.232.039-.425.077a2.276,2.276,0,0,0-.348.09,2.142,2.142,0,0,0-.206.064V353.3h-.748Z" transform="translate(-2865.303 -344.3)" fill="#3c3c3b"/>
      <path id="Path_1599" data-name="Path 1599" d="M2953.534,349.68a.535.535,0,0,1-.168.426.554.554,0,0,1-.4.155.552.552,0,0,1-.567-.58.535.535,0,0,1,.168-.426.554.554,0,0,1,.4-.155.552.552,0,0,1,.567.58Zm-.18,7.814h-.748v-6h.748Z" transform="translate(-2916.347 -348.481)" fill="#3c3c3b"/>
      <path id="Path_1600" data-name="Path 1600" d="M2984.3,367.122c.219-.064.529-.129.9-.206a7.025,7.025,0,0,1,1.393-.116,3.007,3.007,0,0,1,1.148.193,1.717,1.717,0,0,1,.735.567,2.369,2.369,0,0,1,.387.877,5.08,5.08,0,0,1,.116,1.122v3.353h-.748V369.8a5.23,5.23,0,0,0-.09-1.083,1.847,1.847,0,0,0-.3-.722,1.16,1.16,0,0,0-.529-.4,2.545,2.545,0,0,0-.825-.116,6.413,6.413,0,0,0-.928.064,3.462,3.462,0,0,0-.5.1v5.274h-.748v-5.8Z" transform="translate(-2944.134 -363.899)" fill="#3c3c3b"/>
      <path id="Path_1601" data-name="Path 1601" d="M3046.055,371.954a2.056,2.056,0,0,1-.207.129,2.289,2.289,0,0,1-.348.155,2.433,2.433,0,0,1-.464.129,2.777,2.777,0,0,1-.58.052,2.94,2.94,0,0,1-1.006-.168,2.222,2.222,0,0,1-.851-.516,2.378,2.378,0,0,1-.58-.9,3.7,3.7,0,0,1-.219-1.341,3.523,3.523,0,0,1,.193-1.186,2.67,2.67,0,0,1,.567-.941,2.6,2.6,0,0,1,.89-.632,2.909,2.909,0,0,1,1.187-.232,6.219,6.219,0,0,1,1.341.116,7.24,7.24,0,0,1,.825.219v5.48a2.359,2.359,0,0,1-.7,1.921,3.218,3.218,0,0,1-2.1.58,5.164,5.164,0,0,1-1.044-.09,7.391,7.391,0,0,1-.812-.206l.155-.683a3.229,3.229,0,0,0,.761.219,4.909,4.909,0,0,0,.967.09,2.389,2.389,0,0,0,1.547-.413,1.762,1.762,0,0,0,.477-1.405v-.374Zm-.013-4.578a4.645,4.645,0,0,0-.516-.116,5.283,5.283,0,0,0-.89-.052,2.027,2.027,0,0,0-.864.168,1.833,1.833,0,0,0-.645.477,2.034,2.034,0,0,0-.4.735,3.051,3.051,0,0,0-.142.928,2.673,2.673,0,0,0,.168,1.019,1.871,1.871,0,0,0,.426.7,1.478,1.478,0,0,0,.593.387,2.057,2.057,0,0,0,.683.116,2.648,2.648,0,0,0,.929-.155,2.209,2.209,0,0,0,.657-.348Z" transform="translate(-2994.219 -363.637)" fill="#3c3c3b"/>
      <path id="Path_1602" data-name="Path 1602" d="M2676.713,447.122c.219-.064.516-.129.877-.206a6.847,6.847,0,0,1,1.393-.116,1.969,1.969,0,0,1,1.65.658l.232-.155a3.153,3.153,0,0,1,.426-.232,3.2,3.2,0,0,1,.593-.193,3.452,3.452,0,0,1,.761-.077,2.5,2.5,0,0,1,1.109.206,1.579,1.579,0,0,1,.658.567,2.282,2.282,0,0,1,.309.877,7.336,7.336,0,0,1,.078,1.109v3.353h-.748V449.8a8.107,8.107,0,0,0-.052-1.032,2.09,2.09,0,0,0-.206-.722.962.962,0,0,0-.451-.426,1.8,1.8,0,0,0-.748-.142,3.173,3.173,0,0,0-.632.064,2.194,2.194,0,0,0-.49.155c-.142.064-.258.129-.348.181a1.9,1.9,0,0,0-.193.142,4.466,4.466,0,0,1,.155.683,5.3,5.3,0,0,1,.052.8v3.417h-.761v-3.108a8.057,8.057,0,0,0-.052-1.031,1.83,1.83,0,0,0-.219-.722.933.933,0,0,0-.464-.426,1.906,1.906,0,0,0-.786-.142,6.277,6.277,0,0,0-.928.064,2.575,2.575,0,0,0-.477.1v5.274h-.748v-5.815Z" transform="translate(-2676.198 -433.583)" fill="#3c3c3b"/>
      <path id="Path_1603" data-name="Path 1603" d="M2762.356,446.6a2.564,2.564,0,0,1,1.006.168,1.836,1.836,0,0,1,.671.464,1.816,1.816,0,0,1,.374.7,3.2,3.2,0,0,1,.116.877v3.778a2.663,2.663,0,0,1-.335.077c-.142.026-.323.052-.516.09s-.413.052-.645.077-.477.026-.722.026a3.719,3.719,0,0,1-.877-.1,1.753,1.753,0,0,1-.7-.335,1.712,1.712,0,0,1-.464-.58,1.95,1.95,0,0,1-.168-.864,1.867,1.867,0,0,1,.181-.838,1.712,1.712,0,0,1,.516-.58,2.375,2.375,0,0,1,.8-.335,4.916,4.916,0,0,1,1.006-.1,3.385,3.385,0,0,1,.348.013,3.227,3.227,0,0,1,.348.052c.116.026.207.039.3.064s.142.039.168.052v-.374a3.108,3.108,0,0,0-.052-.606,1.258,1.258,0,0,0-.206-.529,1.286,1.286,0,0,0-.438-.387,1.581,1.581,0,0,0-.748-.142,3.685,3.685,0,0,0-.98.09c-.219.064-.374.116-.477.155l-.1-.658a3.208,3.208,0,0,1,.606-.181A7.114,7.114,0,0,1,2762.356,446.6Zm.065,5.583c.3,0,.554-.013.773-.026a3.175,3.175,0,0,0,.567-.077v-2.115a2.247,2.247,0,0,0-.4-.116,3.788,3.788,0,0,0-.761-.064,4.7,4.7,0,0,0-.58.039,1.857,1.857,0,0,0-.554.168,1.118,1.118,0,0,0-.413.361,1.1,1.1,0,0,0-.168.619,1.268,1.268,0,0,0,.116.567.984.984,0,0,0,.309.374,1.559,1.559,0,0,0,.49.206A2.227,2.227,0,0,0,2762.421,452.183Z" transform="translate(-2748.843 -433.409)" fill="#3c3c3b"/>
      <path id="Path_1604" data-name="Path 1604" d="M2820.445,433.12a5.936,5.936,0,0,1-.864.219,7.4,7.4,0,0,1-1.328.1,3.254,3.254,0,0,1-1.2-.219,2.555,2.555,0,0,1-.928-.619,2.8,2.8,0,0,1-.606-.98,3.8,3.8,0,0,1-.219-1.315,4.4,4.4,0,0,1,.18-1.264,2.823,2.823,0,0,1,.529-.993,2.33,2.33,0,0,1,.851-.645,2.742,2.742,0,0,1,1.16-.232,2.791,2.791,0,0,1,1.031.168,2.533,2.533,0,0,1,.632.322v-3.224l.761-.142Zm-.748-4.719a1.486,1.486,0,0,0-.258-.168,2.338,2.338,0,0,0-.361-.168,2.6,2.6,0,0,0-.451-.129,2.259,2.259,0,0,0-.516-.052,1.982,1.982,0,0,0-.928.193,1.613,1.613,0,0,0-.606.529,2.1,2.1,0,0,0-.335.774,4.481,4.481,0,0,0-.1.941,2.552,2.552,0,0,0,.593,1.818,2.04,2.04,0,0,0,1.573.632,5.764,5.764,0,0,0,.9-.052,3.564,3.564,0,0,0,.516-.116v-4.2Z" transform="translate(-2796.926 -413.984)" fill="#3c3c3b"/>
      <path id="Path_1605" data-name="Path 1605" d="M2876.9,449.733a3.771,3.771,0,0,1,.232-1.38,3.058,3.058,0,0,1,.593-.98,2.186,2.186,0,0,1,.838-.58,2.489,2.489,0,0,1,.967-.193,2.265,2.265,0,0,1,1.754.722,3.21,3.21,0,0,1,.658,2.218v.181c0,.064-.013.116-.013.181h-4.216a2.665,2.665,0,0,0,.542,1.689,2,2,0,0,0,1.625.593,3.332,3.332,0,0,0,.98-.116,3.813,3.813,0,0,0,.516-.193l.142.645a2.466,2.466,0,0,1-.606.219,3.616,3.616,0,0,1-1.044.129,3.425,3.425,0,0,1-1.341-.232,2.4,2.4,0,0,1-.916-.645,2.441,2.441,0,0,1-.516-.993A3.664,3.664,0,0,1,2876.9,449.733Zm4.268-.477a2.387,2.387,0,0,0-.438-1.457,1.429,1.429,0,0,0-1.186-.516,1.456,1.456,0,0,0-.722.168,1.675,1.675,0,0,0-.555.438,2.045,2.045,0,0,0-.374.632,2.487,2.487,0,0,0-.155.748h3.43Z" transform="translate(-2850.583 -433.409)" fill="#3c3c3b"/>
      <path id="Path_1606" data-name="Path 1606" d="M2674.541,532.2a2.355,2.355,0,0,0,1.07-.219.748.748,0,0,0,.426-.722.979.979,0,0,0-.077-.413.792.792,0,0,0-.245-.309,2.445,2.445,0,0,0-.464-.271c-.193-.09-.426-.181-.7-.3-.219-.09-.438-.193-.645-.284a2.655,2.655,0,0,1-.529-.335,1.5,1.5,0,0,1,.039-2.3,2.337,2.337,0,0,1,1.509-.451,4.431,4.431,0,0,1,1.019.1,3.3,3.3,0,0,1,.567.181l-.168.67a3.5,3.5,0,0,0-.464-.18,3.069,3.069,0,0,0-.967-.116,1.866,1.866,0,0,0-.477.052,1.243,1.243,0,0,0-.4.168.986.986,0,0,0-.284.284.7.7,0,0,0-.1.413.815.815,0,0,0,.09.413,1.021,1.021,0,0,0,.271.309,2.3,2.3,0,0,0,.438.245c.18.077.374.168.593.258s.451.18.671.284a2.309,2.309,0,0,1,.567.348,1.46,1.46,0,0,1,.555,1.2,1.39,1.39,0,0,1-.606,1.225,2.891,2.891,0,0,1-1.663.413,4.215,4.215,0,0,1-1.212-.129,3.528,3.528,0,0,1-.555-.206l.193-.683.155.077a1.994,1.994,0,0,0,.31.116q.193.058.464.116A4.3,4.3,0,0,0,2674.541,532.2Z" transform="translate(-2672.8 -503.094)" fill="#3c3c3b"/>
      <path id="Path_1607" data-name="Path 1607" d="M2723.834,509.68a.536.536,0,0,1-.167.425.556.556,0,0,1-.4.155.576.576,0,0,1-.4-.155.582.582,0,0,1-.168-.425.536.536,0,0,1,.168-.426.555.555,0,0,1,.4-.155.577.577,0,0,1,.4.155A.536.536,0,0,1,2723.834,509.68Zm-.181,7.814h-.748v-6h.748Z" transform="translate(-2716.265 -487.85)" fill="#3c3c3b"/>
      <path id="Path_1608" data-name="Path 1608" d="M2754.513,527.122c.219-.064.516-.129.877-.206a6.844,6.844,0,0,1,1.393-.116,1.97,1.97,0,0,1,1.651.658l.232-.155a3.145,3.145,0,0,1,.425-.232,3.2,3.2,0,0,1,.593-.193,3.45,3.45,0,0,1,.761-.077,2.5,2.5,0,0,1,1.109.206,1.578,1.578,0,0,1,.658.567,2.286,2.286,0,0,1,.31.877,7.4,7.4,0,0,1,.077,1.109v3.353h-.748V529.8a8.107,8.107,0,0,0-.052-1.032,2.085,2.085,0,0,0-.207-.722.961.961,0,0,0-.451-.426,1.8,1.8,0,0,0-.748-.142,3.175,3.175,0,0,0-.632.064,2.188,2.188,0,0,0-.49.155c-.142.064-.258.129-.348.181a1.9,1.9,0,0,0-.193.142,4.494,4.494,0,0,1,.155.683,5.333,5.333,0,0,1,.052.8v3.417h-.761v-3.107a8.11,8.11,0,0,0-.051-1.032,1.842,1.842,0,0,0-.219-.722.934.934,0,0,0-.464-.425,1.906,1.906,0,0,0-.787-.142,6.277,6.277,0,0,0-.928.064,2.576,2.576,0,0,0-.477.1v5.274h-.748v-5.815Z" transform="translate(-2743.966 -503.268)" fill="#3c3c3b"/>
      <path id="Path_1609" data-name="Path 1609" d="M2842.048,534.965h-.748v-7.943a5.933,5.933,0,0,1,.864-.219,7.391,7.391,0,0,1,1.328-.1,3.255,3.255,0,0,1,1.2.219,2.553,2.553,0,0,1,.928.619,2.853,2.853,0,0,1,.606.993,3.794,3.794,0,0,1,.219,1.315,4.4,4.4,0,0,1-.18,1.264,2.822,2.822,0,0,1-.529.993,2.488,2.488,0,0,1-.851.645,2.743,2.743,0,0,1-1.161.232,2.793,2.793,0,0,1-1.031-.168,2.538,2.538,0,0,1-.632-.322v2.476Zm0-3.224a2.8,2.8,0,0,0,.258.18,2.346,2.346,0,0,0,.361.168,2.591,2.591,0,0,0,.451.129,2.259,2.259,0,0,0,.516.052,1.984,1.984,0,0,0,.928-.193,1.685,1.685,0,0,0,.606-.516,2.1,2.1,0,0,0,.335-.774,4.48,4.48,0,0,0,.1-.941,2.552,2.552,0,0,0-.593-1.818,2.032,2.032,0,0,0-1.56-.632,5.772,5.772,0,0,0-.9.052,3.566,3.566,0,0,0-.516.116v4.178Z" transform="translate(-2819.573 -503.181)" fill="#3c3c3b"/>
      <path id="Path_1610" data-name="Path 1610" d="M2904.147,513.416a2.525,2.525,0,0,1-.67-.1,1.159,1.159,0,0,1-.477-.271,1.208,1.208,0,0,1-.3-.464,2.229,2.229,0,0,1-.1-.709v-7.427l.748-.142v7.543a1.5,1.5,0,0,0,.052.451.683.683,0,0,0,.155.271.544.544,0,0,0,.271.142c.116.026.245.052.4.077Z" transform="translate(-2872.969 -483.669)" fill="#3c3c3b"/>
      <path id="Path_1611" data-name="Path 1611" d="M2931.9,529.733a3.771,3.771,0,0,1,.232-1.38,3.054,3.054,0,0,1,.593-.98,2.187,2.187,0,0,1,.838-.58,2.49,2.49,0,0,1,.967-.193,2.265,2.265,0,0,1,1.754.722,3.211,3.211,0,0,1,.657,2.218v.181c0,.064-.013.116-.013.18h-4.216a2.665,2.665,0,0,0,.542,1.689,2,2,0,0,0,1.625.593,3.33,3.33,0,0,0,.98-.116,3.8,3.8,0,0,0,.516-.193l.142.645a2.467,2.467,0,0,1-.606.219,3.616,3.616,0,0,1-1.044.129,3.422,3.422,0,0,1-1.341-.232,2.4,2.4,0,0,1-.916-.645,2.438,2.438,0,0,1-.516-.993A3.659,3.659,0,0,1,2931.9,529.733Zm4.268-.477a2.387,2.387,0,0,0-.438-1.457,1.429,1.429,0,0,0-1.186-.516,1.457,1.457,0,0,0-.722.168,1.671,1.671,0,0,0-.554.438,2.045,2.045,0,0,0-.374.632,2.5,2.5,0,0,0-.155.748h3.43Z" transform="translate(-2898.49 -503.094)" fill="#3c3c3b"/>
    </g>
    <path id="Path_1612" data-name="Path 1612" d="M2607.348,351.237c-.258,0-.258-.258-.271-.348,0-.064,0-.168-.013-.309,0-.271-.013-.658-.013-1.161-.013-1.006-.013-2.45-.026-4.281-.013-3.765-.026-8.781-.026-14.119s.013-10.341.026-14.119c.013-1.831.013-3.275.026-4.281,0-.5.013-.9.013-1.16a2.091,2.091,0,0,1,.013-.309c0-.09.013-.348.271-.348s.258.258.271.348c0,.064,0,.168.013.309,0,.271.013.658.013,1.16.013,1.006.013,2.45.026,4.281.013,3.765.026,8.781.026,14.119s-.013,10.341-.026,14.119c-.013,1.831-.013,3.275-.026,4.281,0,.5-.013.9-.013,1.161a2.091,2.091,0,0,1-.013.309C2607.606,350.979,2607.606,351.237,2607.348,351.237Z" transform="translate(-2270.844 -270.684)" fill="#3c3c3b"/>
    <g id="Group_1223" data-name="Group 1223" transform="translate(0 0.046)">
      <g id="Group_1219" data-name="Group 1219" transform="translate(0 13.255)">
        <path id="Path_1613" data-name="Path 1613" d="M46.218,107.192c-9.787-7.04-29.8-5.145-37.174,2.837s-4.062,20.476,3.52,23.79a32.43,32.43,0,0,0,7.646,2.166l-1.38,6.589,7.982-6.06h0a40.623,40.623,0,0,0,16.84-3.327C52.833,128.971,56.018,114.246,46.218,107.192Z" transform="translate(-4.273 -102.839)" fill="#3c3c3b"/>
        <path id="Path_1614" data-name="Path 1614" d="M0,298.1a7.746,7.746,0,0,0,2.231,5.171c2.192,1.96,6.267,2.166,6.267,2.166A11.859,11.859,0,0,1,0,298.1Z" transform="translate(0 -272.922)" fill="#3c3c3b"/>
        <path id="Path_1615" data-name="Path 1615" d="M342.1,131.452c-1.044-2.321-4.4-4.152-4.4-4.152a12.183,12.183,0,0,1,4.771,7.26S343.141,133.773,342.1,131.452Z" transform="translate(-294.156 -124.146)" fill="#3c3c3b"/>
      </g>
      <g id="Group_1222" data-name="Group 1222" transform="translate(14.454)">
        <g id="Group_1221" data-name="Group 1221">
          <g id="Group_1220" data-name="Group 1220">
            <path id="Path_1616" data-name="Path 1616" d="M163.435,35.951c8.794-3.83,12.636-18.31,4.087-27.568s-31.759-11.45-43.106-3.288-7.659,25.234,2.991,30.134S153.378,40.335,163.435,35.951Z" transform="translate(-116.783 -0.046)" fill="#ec5f65"/>
            <path id="Path_1617" data-name="Path 1617" d="M352.972,283.1l1.986,9.555-9.258-7.027Z" transform="translate(-315.578 -246.602)" fill="#ec5f65"/>
            <path id="Path_1618" data-name="Path 1618" d="M472,234.91a13.786,13.786,0,0,0,9.851-8.51,9.029,9.029,0,0,1-2.592,6C476.719,234.652,472,234.91,472,234.91Z" transform="translate(-425.592 -197.213)" fill="#ec5f65"/>
            <path id="Path_1619" data-name="Path 1619" d="M112.353,36.807a14.148,14.148,0,0,1,5.519-8.407s-3.894,2.128-5.106,4.81S112.353,36.807,112.353,36.807Z" transform="translate(-112.094 -24.744)" fill="#ec5f65"/>
          </g>
        </g>
      </g>
      <path id="Path_1620" data-name="Path 1620" d="M294.53,102.3l-12.03,6.9V95.4" transform="translate(-246.073 -83.105)" fill="#fff"/>
    </g>
    <path id="Path_1621" data-name="Path 1621" d="M2505.743,404.306A13.771,13.771,0,0,0,2497.4,394.3a9.051,9.051,0,0,1,5.957,2.695C2505.575,399.574,2505.743,404.306,2505.743,404.306Z" transform="translate(-2175.376 -343.417)" fill="#ec5f65"/>
    <path id="Path_1622" data-name="Path 1622" d="M1675.9,589.3a13.74,13.74,0,0,0,11.5,6.1,9.016,9.016,0,0,1-6.525-.245C1677.847,593.607,1675.9,589.3,1675.9,589.3Z" transform="translate(-1459.803 -513.273)" fill="#ec5f65"/>
    <path id="Path_1623" data-name="Path 1623" d="M1032.1,577.51a13.786,13.786,0,0,0,9.851-8.51,9.029,9.029,0,0,1-2.592,6C1036.832,577.252,1032.1,577.51,1032.1,577.51Z" transform="translate(-899.017 -495.591)" fill="#3c3c3b"/>
    <path id="Path_1624" data-name="Path 1624" d="M237.9,589.3a13.74,13.74,0,0,0,11.5,6.1,9.016,9.016,0,0,1-6.525-.245C239.847,593.607,237.9,589.3,237.9,589.3Z" transform="translate(-207.224 -513.273)" fill="#ec5f65"/>
  </g>
</svg>
