<svg xmlns="http://www.w3.org/2000/svg" width="18.045" height="22.569" viewBox="0 0 18.045 22.569">
  <path id="pinterest-icon" d="M82.444,63.781c-6.362,0-9.568,4.417-9.568,8.1,0,2.23.871,4.214,2.742,4.953a.464.464,0,0,0,.67-.324l.273-1.042a.615.615,0,0,0-.192-.722,3.657,3.657,0,0,1-.884-2.542,6.245,6.245,0,0,1,6.591-6.209c3.6,0,5.571,2.127,5.571,4.967,0,3.737-1.708,6.893-4.245,6.893a2.026,2.026,0,0,1-2.112-2.5c.4-1.641,1.183-3.414,1.183-4.6a1.759,1.759,0,0,0-1.807-1.947c-1.432,0-2.582,1.434-2.582,3.356a4.849,4.849,0,0,0,.428,2.052L76.79,81.282a14.113,14.113,0,0,0-.04,4.926.18.18,0,0,0,.318.074,13.742,13.742,0,0,0,2.417-4.244c.165-.577.942-3.564.942-3.564a3.87,3.87,0,0,0,3.27,1.617c4.3,0,7.223-3.8,7.223-8.884C90.92,67.363,87.557,63.781,82.444,63.781Z" transform="translate(-72.878 -63.781)" fill="#fff"/>
</svg>
