<svg xmlns="http://www.w3.org/2000/svg" width="810.833" height="753.875" viewBox="0 0 810.833 753.875">
  <g id="dasdasd" transform="translate(-554.448 -163.069)">
    <g id="Group_58" data-name="Group 58">
      <path id="Path_127" data-name="Path 127" d="M1038.67,163.112c20.328,0,40.655.057,60.982-.023,11.391-.044,19.592,4.963,24.747,15.042s-1.2,26.422-11.65,31.073a32.649,32.649,0,0,1-14.247,2.92c-10.493-.181-21,.1-31.488-.139-3.678-.085-5.052,1.278-5.048,4.717q.031,21.743-.009,43.486c-.012,3.633,1.8,4.882,5.242,4.911,13.313.113,26.194,3.127,39.213,5.538a294.309,294.309,0,0,1,36.678,9.555,265.681,265.681,0,0,1,33.018,13.306c8.187,3.913,16.262,8,24.2,12.4,16.041,8.891,30.844,19.564,45.056,31.054a333.259,333.259,0,0,1,47.769,47.938c7.824,9.521,14.614,19.835,21.418,30.136,11.7,17.715,20.974,36.685,28.776,56.286,5.892,14.8,10.114,30.244,13.739,45.849,3.533,15.21,5.113,30.611,6.914,46.04,1.86,15.928,1.408,31.923.6,47.781a302.812,302.812,0,0,1-5.345,40.8,317.916,317.916,0,0,1-9.564,38.62,325.728,325.728,0,0,1-19.326,46.93,339.218,339.218,0,0,1-27.256,44.625,326.127,326.127,0,0,1-42.722,47.97,310.851,310.851,0,0,1-48.229,37.083,344.182,344.182,0,0,1-52.237,26.537,306.014,306.014,0,0,1-58.019,17.091,311.323,311.323,0,0,1-48.461,5.493c-7.245.227-14.555,1.2-21.769.646-17.171-1.324-34.352-2.323-51.393-5.5-10.21-1.9-20.4-4.012-30.362-6.666A207.588,207.588,0,0,1,919.759,894.3c-7.32-3.217-14.882-5.887-22.1-9.394A351.112,351.112,0,0,1,857.666,862.1a321.147,321.147,0,0,1-61.393-52.639,288.953,288.953,0,0,1-36.8-49.787c-7.748-13.482-15.246-27.049-21.549-41.289-5.823-13.155-5.109-21.049,2.816-30.4,10.3-12.154,32.347-10.38,39.853,6.125,5.359,11.782,10.734,23.514,17.214,34.758A265.591,265.591,0,0,0,821.509,764a293.155,293.155,0,0,0,37.758,38.732,264.446,264.446,0,0,0,35.215,25.179,292.4,292.4,0,0,0,54.647,25.335,299.185,299.185,0,0,0,44.1,11.463c21.887,4.043,44.209,4.3,66.332,2.9,11.6-.732,23.25-3.018,34.821-5.244,21.142-4.068,41.268-11.022,60.693-19.783,17.724-7.994,34.226-18.412,49.9-30.036a274.675,274.675,0,0,0,52.454-51.052,264.535,264.535,0,0,0,29.009-45.995,310.657,310.657,0,0,0,16.494-39.589,259.273,259.273,0,0,0,12.035-55.061c1.359-12.814,2.65-25.687,1.762-38.5-.823-11.9-1.521-23.809-3.466-35.7a275.853,275.853,0,0,0-46.076-114.675,289.4,289.4,0,0,0-51.77-56.6,239.55,239.55,0,0,0-39.118-27.033,303.747,303.747,0,0,0-51.281-22.581,326.162,326.162,0,0,0-47.156-11.393,195.01,195.01,0,0,0-24.134-2.325,283.079,283.079,0,0,0-42.984,1.068,302.409,302.409,0,0,0-37.006,6.371,265.71,265.71,0,0,0-46.3,15.594,271.7,271.7,0,0,0-35.69,18.73A280.322,280.322,0,0,0,832.12,403.83c-4.188,4.681-8.237,9.166-14.526,11.139a23.656,23.656,0,0,1-23.716-4.927c-6.849-5.993-9.033-14.179-7.376-23.375,1.632-9.054,8.447-14.463,14.113-20.551a305.053,305.053,0,0,1,44.122-39.231,358.232,358.232,0,0,1,48.361-29.55,320.314,320.314,0,0,1,59.053-22.667,212.177,212.177,0,0,1,32.474-6.73c8.623-1.008,17.083-3.265,25.888-2.973,2.237.075,3.584-1.245,3.552-4.1q-.257-22.74,0-45.484c.036-3.136-1.217-3.39-3.778-3.365-11.663.116-23.327.049-34.99.05a24.17,24.17,0,0,1-24.1-21.833c-1.085-11.117,4.2-21.4,16.832-25.719a27.444,27.444,0,0,1,9.163-1.442C997.685,163.149,1018.18,163.111,1038.67,163.112Z" fill="#6c757d"/>
      <path id="Path_128" data-name="Path 128" d="M963.544,533.948c9.572-.377,16.67,4.86,23.157,11.793,11.968,12.789,24.279,25.257,36.273,38.023,2.431,2.588,3.9,2.277,6.251.054q49.848-47.19,99.83-94.24,21.613-20.332,43.508-40.364c14.647-13.394,38.553-6.321,43.979,12.641,3.928,13.727-2.2,23.188-11.728,31.977-19.359,17.866-38.4,36.082-57.6,54.11q-32.563,30.558-65.195,61.042c-18.341,17.181-36.79,34.249-54.862,51.708-2.645,2.555-3.515,2.406-5.673.158q-26.941-28.06-53.994-56.016c-7.771-8.066-15.325-16.347-23.279-24.227-11.012-10.909-11.242-31.339,2.882-41.631a25.3,25.3,0,0,1,16.451-5.028Z" fill="#6c757d"/>
      <path id="Path_129" data-name="Path 129" d="M718.548,473.011c-46.652,0-93.3-.21-139.954.153A23.806,23.806,0,0,1,570.38,426.9c3.4-1.2,6.8-1.154,10.193-1.157q137.456-.1,274.911-.107c8.788-.007,16.874,1.036,22.765,8.613,6,7.713,6.756,16.36,3.236,24.85-3.591,8.66-10.439,13.935-20.482,13.929Q789.776,472.978,718.548,473.011Z" fill="#6c757d"/>
      <path id="Path_130" data-name="Path 130" d="M738.533,523.077q59.706,0,119.412-.012c10.706-.01,19.215,4.338,23.515,14.07,5.254,11.894,1.221,27.2-13.827,33.159-5.727,2.27-11.073,2.082-16.62,2.092q-89.434.158-178.868.028c-18.231-.025-36.468-.161-54.688-.71-11.285-.341-19.914-5.3-23.68-17.314-2.848-9.087-.722-18.244,7.074-25.038a24.821,24.821,0,0,1,16.771-6.269Q678.078,523.059,738.533,523.077Z" fill="#6c757d"/>
      <path id="Path_131" data-name="Path 131" d="M761.68,669.18c-32.324,0-64.648-.173-96.97.088-12.189.1-21.466-6.739-24.16-17.433-3.549-14.089,4.469-27.677,18.831-29.99a70.445,70.445,0,0,1,11.25-.839q93.471-.045,186.942.017c20.433.036,30.341,16.92,24.228,33.5-3.317,8.993-10.425,14.247-20.159,14.452-16.653.352-33.318.172-49.978.189s-33.323,0-49.984,0Z" fill="#6c757d"/>
    </g>
  </g>
</svg>
