<svg xmlns="http://www.w3.org/2000/svg" width="1920" height="129" viewBox="0 0 1920 129">
  <g id="smile-white-icon" transform="translate(0 -5508)">
    <rect id="Rectangle_14" data-name="Rectangle 14" width="1920" height="129" transform="translate(0 5508)" fill="#163c7b"/>
    <text id="We_are_always_on_your_web_side_" data-name="We are always on your web side!" transform="translate(497 5567)" fill="#fff" font-size="30" font-family="Poppins-SemiBold, Poppins" font-weight="600"><tspan x="0" y="0">We are always on your web side!</tspan></text>
    <text id="Create_your_own_website_with_Umake_it_s_free_" data-name="Create your own website with Umake, it&apos;s free!" transform="translate(495 5599)" fill="#fff" font-size="15" font-family="Poppins-Regular, Poppins" opacity="0.7"><tspan x="0" y="0">Create your own website with Umake, it&apos;s free!</tspan></text>
    <g id="Group_52" data-name="Group 52" transform="translate(-73 5508)">
      <rect id="Rectangle_7" data-name="Rectangle 7" width="200" height="52" rx="3" transform="translate(1418 40)" fill="#10c8cd"/>
      <text id="Start_for_Free" data-name="Start for Free" transform="translate(1451 73)" fill="#fff" font-size="20" font-family="Poppins-Regular, Poppins" letter-spacing="0.03em"><tspan x="0" y="0">Start for Free</tspan></text>
    </g>
    <g id="happiness" transform="translate(376 5535)">
      <path id="Path_61" data-name="Path 61" d="M40,0A40,40,0,1,0,80,40,40.045,40.045,0,0,0,40,0Zm0,75.676A35.669,35.669,0,1,1,75.676,40,35.562,35.562,0,0,1,40,75.676Z" fill="#fff"/>
      <circle id="Ellipse_31" data-name="Ellipse 31" cx="4.324" cy="4.324" r="4.324" transform="translate(22.613 26.757)" fill="#fff"/>
      <circle id="Ellipse_32" data-name="Ellipse 32" cx="4.324" cy="4.324" r="4.324" transform="translate(49.37 26.757)" fill="#fff"/>
      <path id="Path_62" data-name="Path 62" d="M91.5,192.927a25.106,25.106,0,0,0,20.974-11.382L108.84,179.2a20.544,20.544,0,0,1-34.532,0l-3.632,2.347A25.111,25.111,0,0,0,88.7,192.767,24.437,24.437,0,0,0,91.5,192.927Z" transform="translate(-51.575 -130.765)" fill="#fff"/>
    </g>
  </g>
</svg>
