<svg xmlns="http://www.w3.org/2000/svg" width="31.369" height="30" viewBox="0 0 31.369 30">
  <g id="support-icon" transform="translate(-0.001 -9.21)">
    <path id="Path_14" data-name="Path 14" d="M118.915,122.164v-.354a3.835,3.835,0,0,0,1.255-2.952,1.86,1.86,0,0,0-.777-1.3l-.179-.177h-.239a8.522,8.522,0,0,1-1.2.059,13.156,13.156,0,0,1-6.336-1.653l-.359-.177-.3.3c-1.614,1.358-4.244,1.476-5.021,1.476h-.239l-.179.118a2.118,2.118,0,0,0-.777,1.358,3.835,3.835,0,0,0,1.255,2.952,8.152,8.152,0,0,0,2.032,5.314,6.03,6.03,0,0,0,4.364,1.653h.3a5.937,5.937,0,0,0,4.364-1.653,7.308,7.308,0,0,0,1.793-3.425l.3-1.3-.06.059Zm-5.26,4.133a1.122,1.122,0,1,1,0-2.244,1.144,1.144,0,0,1,.777.3l.3.3h0l.06.413v.118a1.092,1.092,0,0,1-1.136,1.122c.06.059,0,.059,0,0Z" transform="translate(-96.833 -98.461)" fill="#fff"/>
    <g id="Group_3" data-name="Group 3" transform="translate(8.834 12.694)">
      <path id="Path_15" data-name="Path 15" d="M130.52,62.669a12.671,12.671,0,0,1-6.672-1.889c-1.358,1.417-3.543,1.712-4.783,1.83l-.649.059.059-.649c.354-4.9,3.661-5.609,5.55-5.609a3.633,3.633,0,0,1,1.122.118h0a7.234,7.234,0,0,1,1.122-.118c1.948,0,5.2.768,5.55,5.727l.059.59-.59.059a1.744,1.744,0,0,0-.768-.118Z" transform="translate(-118.416 -56.41)" fill="#2ac6be"/>
      <circle id="Ellipse_1" data-name="Ellipse 1" cx="1.122" cy="1.122" r="1.122" transform="translate(6.849 12.871)" fill="#2ac6be"/>
    </g>
    <g id="Group_4" data-name="Group 4" transform="translate(0.415 30.59)">
      <path id="Path_16" data-name="Path 16" d="M5.616,304.5l.059-.649c.472-4.723,7.439-6.672,10.392-7.262l.709-.177v1.771c0,1,1.417,1.83,3.306,1.948l.59.059v4.31Z" transform="translate(-5.616 -296.41)" fill="#b7f3f9"/>
      <path id="Path_17" data-name="Path 17" d="M209.616,304.5v-4.31l.531-.059c1.889-.118,3.306-.945,3.306-1.948V296.41l.709.177c2.952.59,9.919,2.539,10.392,7.262l.059.649Z" transform="translate(-194.368 -296.41)" fill="#b7f3f9"/>
    </g>
    <path id="Path_18" data-name="Path 18" d="M160.713,285.311c-2.126,0-3.9-.886-3.9-1.948V280.41l.827.413a6.861,6.861,0,0,0,2.893.59h.3a7.051,7.051,0,0,0,2.893-.59l.827-.413v2.952C164.61,284.425,162.838,285.311,160.713,285.311Z" transform="translate(-145.147 -251.037)" fill="#fff"/>
    <path id="Path_19" data-name="Path 19" d="M20.081,30.061v-.535a2.976,2.976,0,0,0,.475-.416A8.56,8.56,0,0,0,22.635,24.6a3.981,3.981,0,0,0,2.554-1.545c.891-1.188.95-2.97.238-5.168a.593.593,0,0,0-.238-.3l-.3-.238a8.132,8.132,0,0,0-1.9-5.406c-1.6-1.782-4.04-2.733-7.307-2.733h0c-3.267,0-5.7.95-7.307,2.673a7.838,7.838,0,0,0-1.9,5.406l-.356.238a.593.593,0,0,0-.238.3c-.713,2.2-.653,3.921.238,5.168a4.134,4.134,0,0,0,2.554,1.545,7.751,7.751,0,0,0,2.079,4.515,3.4,3.4,0,0,0,.475.416V30C8.972,30.418-.117,32.557,0,38.616A.561.561,0,0,0,.6,39.21H30.774a.561.561,0,0,0,.594-.594C31.427,32.616,22.338,30.477,20.081,30.061ZM7.012,22.339c-.594-.891-.653-2.2-.119-3.921l.416-.3a.517.517,0,0,0,.238-.535,6.914,6.914,0,0,1,1.6-4.871Q11.2,10.4,15.566,10.4t6.416,2.317a6.914,6.914,0,0,1,1.6,4.871.579.579,0,0,0,.238.535l.416.3c.535,1.723.475,3.03-.119,3.921a2.333,2.333,0,0,1-1.248.891,3.912,3.912,0,0,0,.95-2.97,2.942,2.942,0,0,0-.95-1.663C22.635,12.656,18.477,12,16.635,12a7.189,7.189,0,0,0-1.129.059A7.189,7.189,0,0,0,14.378,12C12.6,12,8.437,12.656,8.14,18.6a2.644,2.644,0,0,0-.95,1.663,3.912,3.912,0,0,0,.95,2.97,2.07,2.07,0,0,1-1.129-.891Zm14.733-3.98a12.522,12.522,0,0,1-7.129-1.782.623.623,0,0,0-.772.059c-1.188,1.248-3.327,1.545-4.4,1.663.3-4.218,2.851-5.109,4.99-5.109a5.763,5.763,0,0,1,1.01.059h.238a5.764,5.764,0,0,1,1.01-.059c2.139,0,4.693.95,5.05,5.168ZM9.685,23.349a.642.642,0,0,0-.178-.416,3.218,3.218,0,0,1-1.069-2.5,1.537,1.537,0,0,1,.535-1.01,9.24,9.24,0,0,0,5.347-1.663,13.544,13.544,0,0,0,6.594,1.782,9.2,9.2,0,0,0,1.248-.059,1.544,1.544,0,0,1,.535.95,3.445,3.445,0,0,1-1.069,2.5.539.539,0,0,0-.178.416v.3L18,25.487a1.723,1.723,0,1,0,.059,2.436,1.659,1.659,0,0,0,.475-1.188v-.178l2.733-1.485a6.391,6.391,0,0,1-1.6,3.149,5.414,5.414,0,0,1-3.921,1.485h-.3a5.322,5.322,0,0,1-3.921-1.485,7.168,7.168,0,0,1-1.842-4.871Zm7.663,3.446a.535.535,0,1,1-.535-.535h0A.532.532,0,0,1,17.348,26.794ZM14.972,38.081H1.071c.475-4.455,7.723-6.3,9.98-6.832v1.069c0,1.366,1.663,2.376,3.921,2.554Zm-2.733-5.762V30.3a6.535,6.535,0,0,0,3.149.653h.3a7.309,7.309,0,0,0,3.149-.653v2.02c0,.594-1.307,1.366-3.327,1.366s-3.267-.832-3.267-1.366Zm3.921,5.762V34.873c2.257-.178,3.921-1.188,3.921-2.554V31.25c2.257.475,9.5,2.317,9.98,6.832Z" transform="translate(0 0)" fill="#082b33"/>
  </g>
</svg>
