<svg xmlns="http://www.w3.org/2000/svg" xmlns:xlink="http://www.w3.org/1999/xlink" width="52.952" height="42.016" viewBox="0 0 52.952 42.016">
  <defs>
    <filter id="Path_1148" x="0" y="0" width="52.952" height="42.016" filterUnits="userSpaceOnUse">
      <feOffset dy="5" input="SourceAlpha"/>
      <feGaussianBlur stdDeviation="2.5" result="blur"/>
      <feFlood flood-opacity="0.161"/>
      <feComposite operator="in" in2="blur"/>
      <feComposite in="SourceGraphic"/>
    </filter>
  </defs>
  <g id="Group_1180" data-name="Group 1180" transform="translate(7.02 2.5)">
    <g transform="matrix(1, 0, 0, 1, -7.02, -2.5)" filter="url(#Path_1148)">
      <path id="Path_1148-2" data-name="Path 1148" d="M149.285,24.9c6.086-2.651,8.746-12.673,2.829-19.08S130.134-2.109,122.28,3.54s-5.3,17.465,2.07,20.856S142.324,27.931,149.285,24.9Z" transform="translate(-109.98 2.45)" fill="#ec5f65"/>
    </g>
    <path id="Path_1150" data-name="Path 1150" d="M472,232.29a9.541,9.541,0,0,0,6.818-5.89,6.249,6.249,0,0,1-1.794,4.15C475.266,232.112,472,232.29,472,232.29Z" transform="translate(-439.881 -206.199)" fill="#ec5f65"/>
    <path id="Path_1151" data-name="Path 1151" d="M112.273,34.219a9.792,9.792,0,0,1,3.82-5.819s-2.7,1.473-3.534,3.329S112.273,34.219,112.273,34.219Z" transform="translate(-112.094 -25.87)" fill="#ec5f65"/>
    <path id="Path_1152" data-name="Path 1152" d="M290.826,100.175l-8.326,4.775V95.4" transform="translate(-267.292 -86.89)" fill="#fff"/>
  </g>
</svg>
