<svg xmlns="http://www.w3.org/2000/svg" width="315" height="57.077" viewBox="0 0 315 57.077">
  <g id="logo-white" transform="translate(-37.2 -8.951)">
    <g id="Group_1176" data-name="Group 1176" transform="translate(121.271 18.243)">
      <path id="Path_1078" data-name="Path 1078" d="M1228.9,221.731q-6.15,0-9.376-3.422t-3.223-9.725a14.944,14.944,0,0,1,.984-5.59,12.016,12.016,0,0,1,2.7-4.15,11.34,11.34,0,0,1,4.078-2.567,14.644,14.644,0,0,1,5.134-.877,16.6,16.6,0,0,1,2.916.235,18.534,18.534,0,0,1,2.3.549,11.864,11.864,0,0,1,1.64.635c.435.221.749.392.948.513l-1.64,4.592a13.751,13.751,0,0,0-2.717-1.055,12.922,12.922,0,0,0-3.515-.435,7.7,7.7,0,0,0-2.567.435,5.838,5.838,0,0,0-2.224,1.4,6.95,6.95,0,0,0-1.547,2.5,10.4,10.4,0,0,0-.585,3.715,13.169,13.169,0,0,0,.385,3.258,6.946,6.946,0,0,0,1.241,2.6,6.01,6.01,0,0,0,2.239,1.733,7.918,7.918,0,0,0,3.351.635,15.982,15.982,0,0,0,2.224-.143,16.4,16.4,0,0,0,1.747-.349,9.279,9.279,0,0,0,1.348-.456c.385-.171.741-.328,1.055-.471l1.569,4.549a13.468,13.468,0,0,1-3.387,1.312,20.034,20.034,0,0,1-5.078.579Z" transform="translate(-1216.3 -195.4)" fill="#fff"/>
      <path id="Path_1079" data-name="Path 1079" d="M1559.62,208.676a15.561,15.561,0,0,1-.963,5.7,11.741,11.741,0,0,1-2.638,4.114,10.834,10.834,0,0,1-3.986,2.5,14.543,14.543,0,0,1-4.97.834,14.13,14.13,0,0,1-4.877-.834,11.158,11.158,0,0,1-4.007-2.5,11.667,11.667,0,0,1-2.7-4.114,15.257,15.257,0,0,1-.984-5.7,14.826,14.826,0,0,1,1.02-5.7,12.109,12.109,0,0,1,2.752-4.135,11.24,11.24,0,0,1,4.007-2.51,13.825,13.825,0,0,1,4.792-.834,14.13,14.13,0,0,1,4.877.834,11.094,11.094,0,0,1,4.007,2.51,11.886,11.886,0,0,1,2.7,4.135,15.551,15.551,0,0,1,.97,5.7Zm-19.258,0a11.378,11.378,0,0,0,.456,3.351,7.66,7.66,0,0,0,1.312,2.567,5.786,5.786,0,0,0,2.1,1.654,7.145,7.145,0,0,0,5.661,0,5.772,5.772,0,0,0,2.11-1.654,7.654,7.654,0,0,0,1.312-2.567,11.37,11.37,0,0,0,.456-3.351,11.5,11.5,0,0,0-.456-3.365,7.763,7.763,0,0,0-1.312-2.588,5.772,5.772,0,0,0-2.11-1.654,6.664,6.664,0,0,0-2.823-.585,6.413,6.413,0,0,0-2.838.6,6,6,0,0,0-2.1,1.676,7.631,7.631,0,0,0-1.312,2.588,11.391,11.391,0,0,0-.458,3.328Z" transform="translate(-1511.812 -195.493)" fill="#fff"/>
      <path id="Path_1080" data-name="Path 1080" d="M1924.36,228.933c-.278-.877-.585-1.775-.906-2.7s-.649-1.847-.963-2.759h-9.854c-.321.92-.642,1.84-.956,2.766s-.62,1.825-.891,2.7h-5.9q1.422-4.075,2.7-7.536c.856-2.3,1.683-4.478,2.5-6.517s1.619-3.979,2.41-5.811,1.611-3.622,2.467-5.369h5.383q1.241,2.62,2.453,5.369t2.431,5.811q1.23,3.059,2.5,6.517t2.709,7.536Zm-6.823-19.522q-.193.545-.556,1.5c-.242.635-.52,1.362-.834,2.189s-.663,1.74-1.048,2.731-.777,2.039-1.177,3.13h7.216c-.385-1.091-.763-2.139-1.119-3.137s-.706-1.911-1.034-2.738-.613-1.554-.856-2.189-.439-1.129-.589-1.486Z" transform="translate(-1855.802 -203.108)" fill="#fff"/>
      <path id="Path_1081" data-name="Path 1081" d="M2293.2,221.731q-6.15,0-9.376-3.422t-3.223-9.725a14.946,14.946,0,0,1,.984-5.59,12.016,12.016,0,0,1,2.7-4.15,11.349,11.349,0,0,1,4.079-2.567,14.642,14.642,0,0,1,5.134-.877,16.6,16.6,0,0,1,2.917.235,18.534,18.534,0,0,1,2.3.549,11.857,11.857,0,0,1,1.64.635c.435.221.756.392.948.513l-1.64,4.592a13.844,13.844,0,0,0-2.709-1.055,12.924,12.924,0,0,0-3.515-.435,7.705,7.705,0,0,0-2.567.435,5.837,5.837,0,0,0-2.225,1.4,6.948,6.948,0,0,0-1.547,2.5,10.381,10.381,0,0,0-.585,3.715,13.151,13.151,0,0,0,.385,3.258,6.943,6.943,0,0,0,1.24,2.6,6.013,6.013,0,0,0,2.239,1.733,7.92,7.92,0,0,0,3.351.635,15.987,15.987,0,0,0,2.225-.143,16.4,16.4,0,0,0,1.747-.349,9.256,9.256,0,0,0,1.348-.456c.385-.171.742-.328,1.055-.471l1.569,4.549a13.476,13.476,0,0,1-3.387,1.312,20.094,20.094,0,0,1-5.086.579Z" transform="translate(-2204.715 -195.4)" fill="#fff"/>
      <path id="Path_1082" data-name="Path 1082" d="M2642.12,203.6h5.683v25.233h-5.683v-10.7h-9.54v10.709h-5.68V203.6h5.683v9.654h9.54Z" transform="translate(-2526.323 -203.015)" fill="#fff"/>
      <path id="Path_1083" data-name="Path 1083" d="M3010.21,225.361q-2.075,0-4.135-.128a29.615,29.615,0,0,1-4.278-.6V200.156a34.976,34.976,0,0,1,3.822-.492c1.383-.107,2.674-.164,3.858-.164a25.816,25.816,0,0,1,4.427.349,10.474,10.474,0,0,1,3.479,1.184,6.138,6.138,0,0,1,2.274,2.2,6.416,6.416,0,0,1,.82,3.365,5.334,5.334,0,0,1-2.916,4.77,5.979,5.979,0,0,1,3.28,2.474,7.1,7.1,0,0,1,.877,3.529,6.793,6.793,0,0,1-2.9,5.975Q3015.93,225.361,3010.21,225.361Zm-2.881-15.665h2.767a7.725,7.725,0,0,0,3.75-.67,2.337,2.337,0,0,0,1.126-2.168,2.233,2.233,0,0,0-1.162-2.146,7.476,7.476,0,0,0-3.423-.62c-.485,0-1.005.007-1.569.021s-1.055.043-1.49.093v5.49Zm0,4.335v6.517q.621.075,1.348.107c.485.021,1.02.036,1.6.036a9.848,9.848,0,0,0,4.114-.727,2.705,2.705,0,0,0,1.569-2.7,2.641,2.641,0,0,0-1.312-2.5,7.672,7.672,0,0,0-3.75-.749h-3.572Z" transform="translate(-2874.493 -199.208)" fill="#fff"/>
      <path id="Path_1084" data-name="Path 1084" d="M3354.92,208.676a15.558,15.558,0,0,1-.962,5.7,11.745,11.745,0,0,1-2.638,4.114,10.831,10.831,0,0,1-3.986,2.5,14.542,14.542,0,0,1-4.97.834,14.131,14.131,0,0,1-4.877-.834,11.158,11.158,0,0,1-4.007-2.5,11.664,11.664,0,0,1-2.7-4.114,15.259,15.259,0,0,1-.984-5.7,14.822,14.822,0,0,1,1.02-5.7,12.107,12.107,0,0,1,2.752-4.135,11.239,11.239,0,0,1,4.007-2.51,13.82,13.82,0,0,1,4.792-.834,14.132,14.132,0,0,1,4.877.834,11.092,11.092,0,0,1,4.007,2.51,11.883,11.883,0,0,1,2.7,4.135,15.565,15.565,0,0,1,.969,5.7Zm-19.265,0a11.366,11.366,0,0,0,.456,3.351,7.653,7.653,0,0,0,1.312,2.567,5.789,5.789,0,0,0,2.1,1.654,6.531,6.531,0,0,0,2.838.585,6.6,6.6,0,0,0,2.824-.585,5.779,5.779,0,0,0,2.11-1.654,7.654,7.654,0,0,0,1.313-2.567,11.374,11.374,0,0,0,.456-3.351,11.493,11.493,0,0,0-.456-3.365,7.765,7.765,0,0,0-1.312-2.588,5.774,5.774,0,0,0-2.11-1.654,6.665,6.665,0,0,0-2.824-.585,6.412,6.412,0,0,0-2.838.6,6,6,0,0,0-2.1,1.676,7.622,7.622,0,0,0-1.312,2.588,11.4,11.4,0,0,0-.461,3.328Z" transform="translate(-3179.106 -195.493)" fill="#fff"/>
      <path id="Path_1085" data-name="Path 1085" d="M3758.32,208.676a15.553,15.553,0,0,1-.963,5.7,11.74,11.74,0,0,1-2.638,4.114,10.833,10.833,0,0,1-3.985,2.5,14.545,14.545,0,0,1-4.97.834,14.129,14.129,0,0,1-4.877-.834,11.157,11.157,0,0,1-4.007-2.5,11.662,11.662,0,0,1-2.7-4.114,15.245,15.245,0,0,1-.984-5.7,14.822,14.822,0,0,1,1.02-5.7,12.116,12.116,0,0,1,2.752-4.135,11.245,11.245,0,0,1,4.007-2.51,13.821,13.821,0,0,1,4.792-.834,14.134,14.134,0,0,1,4.877.834,11.093,11.093,0,0,1,4.008,2.51,11.892,11.892,0,0,1,2.7,4.135,15.419,15.419,0,0,1,.964,5.7Zm-19.258,0a11.366,11.366,0,0,0,.456,3.351,7.664,7.664,0,0,0,1.312,2.567,5.786,5.786,0,0,0,2.1,1.654,7.145,7.145,0,0,0,5.661,0,5.769,5.769,0,0,0,2.11-1.654,7.639,7.639,0,0,0,1.312-2.567,11.366,11.366,0,0,0,.457-3.351,11.493,11.493,0,0,0-.457-3.365,7.743,7.743,0,0,0-1.312-2.588,5.769,5.769,0,0,0-2.11-1.654,6.665,6.665,0,0,0-2.823-.585,6.412,6.412,0,0,0-2.838.6,6,6,0,0,0-2.1,1.676,7.627,7.627,0,0,0-1.312,2.588,11.387,11.387,0,0,0-.458,3.328Z" transform="translate(-3553.743 -195.493)" fill="#fff"/>
      <path id="Path_1086" data-name="Path 1086" d="M4166.69,228.841c-.514-.82-1.113-1.711-1.812-2.66s-1.44-1.918-2.246-2.888-1.64-1.9-2.518-2.788a25.993,25.993,0,0,0-2.63-2.353V228.84H4151.8V203.6h5.683v9.483q2.193-2.3,4.449-4.813c1.5-1.676,2.9-3.23,4.178-4.67h6.738q-2.577,3.07-5.184,5.9t-5.491,5.7a43.245,43.245,0,0,1,5.84,5.989,75.259,75.259,0,0,1,5.413,7.643h-6.737Z" transform="translate(-3942.497 -203.015)" fill="#fff"/>
    </g>
    <g id="Group_1177" data-name="Group 1177" transform="translate(121.271 50.149)">
      <path id="Path_1087" data-name="Path 1087" d="M1938.34,760.193a3.872,3.872,0,0,1-1,.412,5.573,5.573,0,0,1-1.52.193,2.866,2.866,0,0,1-2.253-.85,3.432,3.432,0,0,1-.76-2.357,6.715,6.715,0,0,1,.348-2.15,5.67,5.67,0,0,1,1-1.816,4.841,4.841,0,0,1,3.838-1.726,5.1,5.1,0,0,1,1.687.283l-.438.966a3.439,3.439,0,0,0-.747-.206,4.643,4.643,0,0,0-.722-.052,3.421,3.421,0,0,0-1.584.373,3.687,3.687,0,0,0-1.223,1,4.724,4.724,0,0,0-.786,1.468,5.607,5.607,0,0,0-.283,1.751,2.685,2.685,0,0,0,.5,1.713,1.937,1.937,0,0,0,1.6.631,4.248,4.248,0,0,0,.7-.065,4.329,4.329,0,0,0,.644-.154c.193-.064.373-.129.528-.193a2.057,2.057,0,0,0,.347-.18Z" transform="translate(-1932.8 -747.818)" fill="#fff"/>
      <path id="Path_1088" data-name="Path 1088" d="M2028.87,754.759a7.351,7.351,0,0,1-.438,2.679,5.83,5.83,0,0,1-1.121,1.88,4.508,4.508,0,0,1-1.507,1.107,4,4,0,0,1-1.635.361,3.416,3.416,0,0,1-1.093-.18,2.535,2.535,0,0,1-.916-.541,2.7,2.7,0,0,1-.631-.9,3.1,3.1,0,0,1-.232-1.236,7.343,7.343,0,0,1,.438-2.679,5.815,5.815,0,0,1,1.121-1.88,4.566,4.566,0,0,1,1.506-1.107A4,4,0,0,1,2026,751.9a3.415,3.415,0,0,1,1.093.18,2.534,2.534,0,0,1,.915.541,2.5,2.5,0,0,1,.618.9A2.977,2.977,0,0,1,2028.87,754.759Zm-6.478,3.116a1.9,1.9,0,0,0,.541,1.468,1.84,1.84,0,0,0,1.3.49,2.684,2.684,0,0,0,1.211-.309,3.64,3.64,0,0,0,1.145-.927,4.835,4.835,0,0,0,.85-1.558,6.7,6.7,0,0,0,.335-2.2,1.9,1.9,0,0,0-.541-1.468,1.84,1.84,0,0,0-1.3-.489,2.684,2.684,0,0,0-1.211.309,3.781,3.781,0,0,0-1.146.914,4.85,4.85,0,0,0-.85,1.558,6.741,6.741,0,0,0-.336,2.212Z" transform="translate(-2009.903 -747.818)" fill="#fff"/>
      <path id="Path_1089" data-name="Path 1089" d="M2126.03,760.783a2.007,2.007,0,0,1-.167-.451,2.373,2.373,0,0,1-.1-.515,3.985,3.985,0,0,1-1.211.824,3.314,3.314,0,0,1-1.314.258,2.949,2.949,0,0,1-1-.18,2.262,2.262,0,0,1-.837-.554,2.7,2.7,0,0,1-.579-.979,4.247,4.247,0,0,1-.219-1.417,6.4,6.4,0,0,1,.425-2.382,5.2,5.2,0,0,1,3.012-2.975,6.231,6.231,0,0,1,2.28-.412,5.6,5.6,0,0,1,1.958.348l-1.262,5.112c-.064.27-.116.528-.167.773a4.607,4.607,0,0,0-.065.7,3.78,3.78,0,0,0,.374,1.713Zm.952-7.675c-.193-.039-.373-.077-.541-.1a3.326,3.326,0,0,0-.515-.039,3.922,3.922,0,0,0-1.816.4,4.229,4.229,0,0,0-1.339,1.03,4.58,4.58,0,0,0-.837,1.468,5.017,5.017,0,0,0-.283,1.674,3.93,3.93,0,0,0,.129,1.12,1.989,1.989,0,0,0,.36.721,1.483,1.483,0,0,0,.541.4,1.863,1.863,0,0,0,.657.129,2.6,2.6,0,0,0,1.275-.322,4.067,4.067,0,0,0,1.12-.914,4.437,4.437,0,0,1,.13-1.017c.09-.386.167-.734.244-1.03Z" transform="translate(-2096.415 -747.905)" fill="#fff"/>
      <path id="Path_1090" data-name="Path 1090" d="M2224.64,760.193a3.866,3.866,0,0,1-1,.412,5.57,5.57,0,0,1-1.519.193,2.867,2.867,0,0,1-2.253-.85,3.434,3.434,0,0,1-.76-2.357,6.725,6.725,0,0,1,.347-2.15,5.682,5.682,0,0,1,1-1.816,4.974,4.974,0,0,1,1.635-1.262,5.027,5.027,0,0,1,2.2-.464,5.1,5.1,0,0,1,1.687.283l-.438.966a3.435,3.435,0,0,0-.747-.206,4.647,4.647,0,0,0-.722-.052,3.42,3.42,0,0,0-1.583.373,3.688,3.688,0,0,0-1.224,1,4.73,4.73,0,0,0-.786,1.468,5.607,5.607,0,0,0-.283,1.751,2.683,2.683,0,0,0,.5,1.713,1.937,1.937,0,0,0,1.6.631,4.248,4.248,0,0,0,.7-.065,4.307,4.307,0,0,0,.644-.154c.193-.064.374-.129.528-.193a2.075,2.075,0,0,0,.347-.18Z" transform="translate(-2182.231 -747.818)" fill="#fff"/>
      <path id="Path_1091" data-name="Path 1091" d="M2306.97,733.249h-1.07l2.988-12.556,1.12-.193-1.082,4.494a5.177,5.177,0,0,1,1.958-.425,2.931,2.931,0,0,1,1.03.167,2.472,2.472,0,0,1,.837.49,2.371,2.371,0,0,1,.567.824,3.071,3.071,0,0,1,.205,1.2,6.917,6.917,0,0,1-.064.876,8.135,8.135,0,0,1-.181.914l-1.017,4.224h-1.069l.9-3.786c.09-.361.167-.734.244-1.107a5.3,5.3,0,0,0,.115-1.069,1.921,1.921,0,0,0-.154-.824,1.489,1.489,0,0,0-1.017-.841,2.7,2.7,0,0,0-.721-.09,4.932,4.932,0,0,0-.966.1,6.353,6.353,0,0,0-.914.245Z" transform="translate(-2257.852 -720.461)" fill="#fff"/>
      <path id="Path_1092" data-name="Path 1092" d="M2409.36,730.848h1.069l-2.06,8.5H2407.3Zm.425-2.485a.8.8,0,0,1,.76-.863.653.653,0,0,1,.515.206.8.8,0,0,1,.18.528.76.76,0,0,1-.258.6.852.852,0,0,1-.528.219.592.592,0,0,1-.49-.193.669.669,0,0,1-.184-.5Z" transform="translate(-2346.193 -726.56)" fill="#fff"/>
      <path id="Path_1093" data-name="Path 1093" d="M2471.26,752.663c.425-.116.875-.232,1.365-.322a7.68,7.68,0,0,1,1.429-.142,4.533,4.533,0,0,1,1.121.129,2.235,2.235,0,0,1,.914.438,2.013,2.013,0,0,1,.618.824,3.019,3.019,0,0,1,.232,1.262,6.871,6.871,0,0,1-.064.876,8.133,8.133,0,0,1-.18.914l-1.018,4.224h-1.069l.9-3.786c.091-.361.167-.734.245-1.107a6.451,6.451,0,0,0,.128-1.069,1.98,1.98,0,0,0-.154-.837,1.331,1.331,0,0,0-.425-.528,1.889,1.889,0,0,0-.63-.283,3.634,3.634,0,0,0-.76-.077,6.862,6.862,0,0,0-.876.064,8.685,8.685,0,0,0-.876.167l-1.79,7.443h-1.07Z" transform="translate(-2400.209 -748.079)" fill="#fff"/>
      <path id="Path_1094" data-name="Path 1094" d="M2562.85,762.061a3.1,3.1,0,0,0,.991.464,5.01,5.01,0,0,0,1.288.18,3.519,3.519,0,0,0,2.331-.7,3.235,3.235,0,0,0,1.055-1.957l.091-.425a4.055,4.055,0,0,1-1.056.464,4.2,4.2,0,0,1-1.121.155,2.965,2.965,0,0,1-1.223-.232,2.224,2.224,0,0,1-.849-.631,2.6,2.6,0,0,1-.49-.94,3.685,3.685,0,0,1-.167-1.146,5.837,5.837,0,0,1,.334-1.893,4.826,4.826,0,0,1,1.043-1.739,5.651,5.651,0,0,1,1.764-1.275,5.847,5.847,0,0,1,2.524-.49,4.46,4.46,0,0,1,1.12.129,4.046,4.046,0,0,1,.94.348l-1.841,7.663a11.956,11.956,0,0,1-.426,1.352,3.712,3.712,0,0,1-.772,1.172,3.662,3.662,0,0,1-1.352.824,6.451,6.451,0,0,1-2.177.309,5.037,5.037,0,0,1-.592-.039,4.38,4.38,0,0,1-.67-.129,5.278,5.278,0,0,1-.643-.193,2.749,2.749,0,0,1-.554-.258Zm7.366-9.053a4.082,4.082,0,0,0-1.018-.129,4.445,4.445,0,0,0-1.97.4,4.2,4.2,0,0,0-2.447,3.824,4.6,4.6,0,0,0,.077.85,1.7,1.7,0,0,0,.283.7,1.371,1.371,0,0,0,.541.464,1.993,1.993,0,0,0,.889.167,3.444,3.444,0,0,0,1.159-.206,5.5,5.5,0,0,0,1.146-.554Z" transform="translate(-2481.32 -747.817)" fill="#fff"/>
      <path id="Path_1095" data-name="Path 1095" d="M2733.34,752.751c.168-.052.348-.116.554-.167s.425-.1.657-.142.464-.077.708-.1a6.677,6.677,0,0,1,.7-.039,3.934,3.934,0,0,1,1.262.193,1.907,1.907,0,0,1,.939.682,6.558,6.558,0,0,1,1.468-.682,4.26,4.26,0,0,1,1.237-.193,3.861,3.861,0,0,1,1.043.129,2.037,2.037,0,0,1,.85.425,1.935,1.935,0,0,1,.579.811,3.37,3.37,0,0,1,.219,1.3,6.964,6.964,0,0,1-.064.876,8.434,8.434,0,0,1-.181.914l-1.018,4.224h-1.068l.9-3.786c.09-.361.167-.734.245-1.107a5.3,5.3,0,0,0,.116-1.069,2.34,2.34,0,0,0-.129-.85,1.228,1.228,0,0,0-.373-.528,1.4,1.4,0,0,0-.554-.27,2.8,2.8,0,0,0-.67-.077,3.758,3.758,0,0,0-.889.129,4.2,4.2,0,0,0-1.326.618,4.163,4.163,0,0,1,.1.915,6.964,6.964,0,0,1-.064.876,8.308,8.308,0,0,1-.18.914l-1.018,4.224h-1.069l.9-3.786c.09-.36.167-.734.244-1.107a5.281,5.281,0,0,0,.117-1.069,2.356,2.356,0,0,0-.129-.85,1.228,1.228,0,0,0-.374-.528,1.39,1.39,0,0,0-.554-.271,2.811,2.811,0,0,0-.669-.077,6.048,6.048,0,0,0-.812.065,5.965,5.965,0,0,0-.786.167l-1.791,7.443H2731.4Z" transform="translate(-2628.556 -748.166)" fill="#fff"/>
      <path id="Path_1096" data-name="Path 1096" d="M2875.43,760.783a1.994,1.994,0,0,1-.167-.451,2.417,2.417,0,0,1-.1-.515,3.984,3.984,0,0,1-1.211.824,3.315,3.315,0,0,1-1.314.258,2.945,2.945,0,0,1-1-.18,2.261,2.261,0,0,1-.837-.554,2.708,2.708,0,0,1-.58-.979,4.265,4.265,0,0,1-.219-1.417,6.378,6.378,0,0,1,.425-2.382,5.2,5.2,0,0,1,3.013-2.975,6.239,6.239,0,0,1,2.279-.412,5.6,5.6,0,0,1,1.958.348l-1.262,5.112c-.064.27-.116.528-.167.773a4.487,4.487,0,0,0-.064.7,4.26,4.26,0,0,0,.076.837,4.374,4.374,0,0,0,.3.876Zm.953-7.675c-.192-.039-.373-.077-.54-.1a3.328,3.328,0,0,0-.515-.039,3.922,3.922,0,0,0-1.816.4,4.24,4.24,0,0,0-1.34,1.03,4.6,4.6,0,0,0-.837,1.468,5.011,5.011,0,0,0-.284,1.674,3.947,3.947,0,0,0,.129,1.12,1.986,1.986,0,0,0,.361.721,1.479,1.479,0,0,0,.54.4,1.868,1.868,0,0,0,.657.129,2.609,2.609,0,0,0,1.275-.322,4.072,4.072,0,0,0,1.12-.914,4.45,4.45,0,0,1,.129-1.017c.09-.386.167-.734.244-1.03Z" transform="translate(-2749.306 -747.905)" fill="#fff"/>
      <path id="Path_1097" data-name="Path 1097" d="M2973.91,733.078a3.223,3.223,0,0,1-.167-.438,4.434,4.434,0,0,1-.116-.528,2.6,2.6,0,0,1-.386.348,2.627,2.627,0,0,1-.566.348,3.742,3.742,0,0,1-.734.258,3.331,3.331,0,0,1-.9.1,2.71,2.71,0,0,1-1.211-.257,2.374,2.374,0,0,1-.824-.683,2.546,2.546,0,0,1-.463-1.017,4.744,4.744,0,0,1-.142-1.224,6.7,6.7,0,0,1,.335-2.06,5.228,5.228,0,0,1,1.03-1.829,5.434,5.434,0,0,1,1.763-1.326,5.823,5.823,0,0,1,2.512-.515,6.128,6.128,0,0,1,1.069.1l.94-3.966,1.12-.193-2.369,9.813c-.052.193-.091.386-.129.58a3.971,3.971,0,0,0-.039.541,5.011,5.011,0,0,0,.077.9,3.205,3.205,0,0,0,.3.85Zm.966-7.727c-.155-.026-.322-.039-.5-.052s-.361-.026-.5-.026a4.158,4.158,0,0,0-4.122,2.988,5.459,5.459,0,0,0-.257,1.6,4.063,4.063,0,0,0,.091.914,2.349,2.349,0,0,0,.283.734,1.335,1.335,0,0,0,.5.5,1.538,1.538,0,0,0,.759.18,2.556,2.556,0,0,0,.773-.116,3.645,3.645,0,0,0,.683-.283,3.255,3.255,0,0,0,.579-.386,3.428,3.428,0,0,0,.438-.412,4.645,4.645,0,0,1,.116-.966c.077-.361.167-.721.257-1.107Z" transform="translate(-2835.035 -720.2)" fill="#fff"/>
      <path id="Path_1098" data-name="Path 1098" d="M3076.56,754.263a2.373,2.373,0,0,1-.451,1.494,3.053,3.053,0,0,1-1.261.914,8.207,8.207,0,0,1-1.958.49c-.76.1-1.609.167-2.537.219v.348a3.8,3.8,0,0,0,.1.888,1.651,1.651,0,0,0,.361.721,1.934,1.934,0,0,0,.734.489,3.529,3.529,0,0,0,1.211.18,4.384,4.384,0,0,0,2.267-.657l.116.991a5.244,5.244,0,0,1-1.237.49,5.415,5.415,0,0,1-1.365.167,4.333,4.333,0,0,1-1.52-.232,2.508,2.508,0,0,1-1-.644,2.4,2.4,0,0,1-.553-.991,4.359,4.359,0,0,1-.168-1.262,6.834,6.834,0,0,1,.322-2.086,5.973,5.973,0,0,1,.94-1.854,4.728,4.728,0,0,1,1.532-1.326,4.221,4.221,0,0,1,2.073-.5,2.422,2.422,0,0,1,1.765.6,1.975,1.975,0,0,1,.627,1.556Zm-2.485-1.211a2.892,2.892,0,0,0-1.237.27,3.437,3.437,0,0,0-1.03.734,5.178,5.178,0,0,0-.8,1.069,5.833,5.833,0,0,0-.5,1.288,18.754,18.754,0,0,0,2.358-.18,6.045,6.045,0,0,0,1.532-.412,1.89,1.89,0,0,0,.824-.631,1.566,1.566,0,0,0,.245-.85,1.2,1.2,0,0,0-.387-.966,1.447,1.447,0,0,0-1-.321Z" transform="translate(-2922.94 -747.992)" fill="#fff"/>
      <path id="Path_1099" data-name="Path 1099" d="M3218.89,759.253a4.08,4.08,0,0,0,1.069.438,4.283,4.283,0,0,0,1.03.116,3.119,3.119,0,0,0,.786-.09,2.188,2.188,0,0,0,.656-.27,1.3,1.3,0,0,0,.438-.477,1.453,1.453,0,0,0,.167-.7,1.034,1.034,0,0,0-.244-.708,2.529,2.529,0,0,0-.592-.489,8.4,8.4,0,0,0-.76-.4,4.142,4.142,0,0,1-.759-.463,2.41,2.41,0,0,1-.593-.657,1.978,1.978,0,0,1-.244-1.018,2.657,2.657,0,0,1,.258-1.21,2.308,2.308,0,0,1,.708-.824,2.715,2.715,0,0,1,1.017-.464,4.531,4.531,0,0,1,1.184-.142,5.73,5.73,0,0,1,1.045.09,5.861,5.861,0,0,1,.99.271l-.424.953a4.052,4.052,0,0,0-.786-.245,4.339,4.339,0,0,0-.927-.09,3.688,3.688,0,0,0-.76.077,1.7,1.7,0,0,0-.644.271,1.6,1.6,0,0,0-.45.477,1.325,1.325,0,0,0-.167.7,1.029,1.029,0,0,0,.246.708,2.421,2.421,0,0,0,.579.489,6.006,6.006,0,0,0,.76.4,4.321,4.321,0,0,1,.76.451,2.245,2.245,0,0,1,.579.631,1.757,1.757,0,0,1,.247.94,2.722,2.722,0,0,1-.271,1.249,2.452,2.452,0,0,1-.722.85,3,3,0,0,1-1.017.489,4.533,4.533,0,0,1-1.185.155,6.364,6.364,0,0,1-1.288-.142,4.413,4.413,0,0,1-1.172-.438Z" transform="translate(-3052.839 -747.818)" fill="#fff"/>
      <path id="Path_1100" data-name="Path 1100" d="M3308.16,730.848h1.07l-2.061,8.5H3306.1Zm.425-2.485a.8.8,0,0,1,.76-.863.654.654,0,0,1,.515.206.791.791,0,0,1,.18.528.758.758,0,0,1-.257.6.855.855,0,0,1-.528.219.6.6,0,0,1-.49-.193.67.67,0,0,1-.185-.5Z" transform="translate(-3129.245 -726.56)" fill="#fff"/>
      <path id="Path_1101" data-name="Path 1101" d="M3370.04,752.751c.167-.052.349-.116.554-.167s.425-.1.656-.142.464-.077.708-.1a6.715,6.715,0,0,1,.7-.039,3.927,3.927,0,0,1,1.262.193,1.9,1.9,0,0,1,.941.682,6.549,6.549,0,0,1,1.468-.682,4.258,4.258,0,0,1,1.237-.193,3.862,3.862,0,0,1,1.043.129,2.034,2.034,0,0,1,.85.425,1.944,1.944,0,0,1,.579.811,3.375,3.375,0,0,1,.219,1.3,6.785,6.785,0,0,1-.065.876,8.431,8.431,0,0,1-.18.914l-1.018,4.224h-1.069l.9-3.786c.09-.361.167-.734.244-1.107a5.3,5.3,0,0,0,.117-1.069,2.372,2.372,0,0,0-.129-.85,1.229,1.229,0,0,0-.373-.528,1.4,1.4,0,0,0-.554-.27,2.817,2.817,0,0,0-.67-.077,3.768,3.768,0,0,0-.888.129,4.206,4.206,0,0,0-1.326.618,4.135,4.135,0,0,1,.1.915,6.918,6.918,0,0,1-.065.876,8.135,8.135,0,0,1-.18.914l-1.019,4.224h-1.068l.9-3.786c.091-.36.167-.734.245-1.107a5.3,5.3,0,0,0,.117-1.069,2.367,2.367,0,0,0-.129-.85,1.23,1.23,0,0,0-.374-.528,1.392,1.392,0,0,0-.554-.271,2.811,2.811,0,0,0-.669-.077,6.064,6.064,0,0,0-.812.065,5.946,5.946,0,0,0-.785.167l-1.791,7.443H3368.1Z" transform="translate(-3183.261 -748.166)" fill="#fff"/>
      <path id="Path_1102" data-name="Path 1102" d="M3501.69,752.441a11.779,11.779,0,0,1,1.378-.4,6.229,6.229,0,0,1,1.365-.142q3,0,3,3.129a6.369,6.369,0,0,1-.361,2.138,5.48,5.48,0,0,1-1.056,1.829,5.185,5.185,0,0,1-1.713,1.275,5.268,5.268,0,0,1-2.3.476,4.9,4.9,0,0,1-1.185-.142l-.734,3.039H3499Zm-.631,7.173a3.522,3.522,0,0,0,1.043.142,3.928,3.928,0,0,0,1.816-.4,4.325,4.325,0,0,0,1.34-1.056,4.71,4.71,0,0,0,.824-1.468,5.23,5.23,0,0,0,.283-1.648,2.557,2.557,0,0,0-.541-1.8,2.173,2.173,0,0,0-1.635-.567,5.038,5.038,0,0,0-.76.064,6.414,6.414,0,0,0-.8.18Z" transform="translate(-3297.304 -747.818)" fill="#fff"/>
      <path id="Path_1103" data-name="Path 1103" d="M3608.47,720.593l1.094-.193-2.034,8.564c-.091.373-.167.721-.257,1.056a4.2,4.2,0,0,0-.13.927,1.95,1.95,0,0,0,.052.489,1.135,1.135,0,0,0,.193.4,1.324,1.324,0,0,0,.412.309,3.126,3.126,0,0,0,.7.232l-.245.94a2.516,2.516,0,0,1-1.674-.734,2.211,2.211,0,0,1-.476-1.468,6.331,6.331,0,0,1,.064-.824,8.618,8.618,0,0,1,.179-.914Z" transform="translate(-3390.612 -720.374)" fill="#fff"/>
      <path id="Path_1104" data-name="Path 1104" d="M3676.86,754.263a2.368,2.368,0,0,1-.451,1.494,3.048,3.048,0,0,1-1.262.914,8.171,8.171,0,0,1-1.958.49c-.759.1-1.609.167-2.536.219v.348a3.869,3.869,0,0,0,.1.888,1.675,1.675,0,0,0,.361.721,1.936,1.936,0,0,0,.734.489,3.532,3.532,0,0,0,1.21.18,4.377,4.377,0,0,0,2.266-.657l.116.991a5.257,5.257,0,0,1-1.236.49,5.423,5.423,0,0,1-1.365.167,4.333,4.333,0,0,1-1.52-.232,2.509,2.509,0,0,1-1-.644,2.421,2.421,0,0,1-.553-.991,4.394,4.394,0,0,1-.168-1.262,6.842,6.842,0,0,1,.321-2.086,6.009,6.009,0,0,1,.94-1.854,4.753,4.753,0,0,1,1.533-1.326,4.224,4.224,0,0,1,2.073-.5,2.419,2.419,0,0,1,1.763.6,1.974,1.974,0,0,1,.63,1.556Zm-2.485-1.211a2.887,2.887,0,0,0-1.237.27,3.421,3.421,0,0,0-1.03.734,5.63,5.63,0,0,0-.8,1.069,5.791,5.791,0,0,0-.5,1.288,18.709,18.709,0,0,0,2.357-.18,6.049,6.049,0,0,0,1.533-.412,1.9,1.9,0,0,0,.825-.631,1.471,1.471,0,0,0,.243-.85,1.2,1.2,0,0,0-.386-.966,1.473,1.473,0,0,0-1-.321Z" transform="translate(-3445.934 -747.992)" fill="#fff"/>
    </g>
    <g id="Group_1182" data-name="Group 1182" transform="translate(37.2 8.949)">
      <g id="Group_1178" data-name="Group 1178" transform="translate(0 13.18)">
        <path id="Path_1105" data-name="Path 1105" d="M87.046,198.133c-9.725-6.995-29.611-5.119-36.948,2.816s-4.043,20.349,3.494,23.636a31.723,31.723,0,0,0,7.594,2.146l-1.369,6.56,7.936-6.025h0a40.442,40.442,0,0,0,16.727-3.3C93.613,219.766,96.771,205.127,87.046,198.133Z" transform="translate(-45.356 -193.805)" fill="#c5c5c5"/>
        <path id="Path_1106" data-name="Path 1106" d="M37.2,544.7a7.732,7.732,0,0,0,2.217,5.141c2.182,1.939,6.232,2.153,6.232,2.153A11.81,11.81,0,0,1,37.2,544.7Z" transform="translate(-37.2 -519.681)" fill="#c5c5c5"/>
        <path id="Path_1107" data-name="Path 1107" d="M648.371,241.828c-1.034-2.3-4.371-4.128-4.371-4.128a12.134,12.134,0,0,1,4.734,7.209S649.4,244.138,648.371,241.828Z" transform="translate(-600.735 -234.57)" fill="#c5c5c5"/>
      </g>
      <g id="Group_1181" data-name="Group 1181" transform="translate(14.376)">
        <g id="Group_1180" data-name="Group 1180">
          <g id="Group_1179" data-name="Group 1179">
            <path id="Path_1108" data-name="Path 1108" d="M293.94,44.631c8.741-3.807,12.563-18.2,4.057-27.4s-31.558-11.372-42.83-3.258-7.615,25.077,2.966,29.946S283.944,48.981,293.94,44.631Z" transform="translate(-247.596 -8.949)" fill="#fff"/>
            <path id="Path_1109" data-name="Path 1109" d="M665.716,517.7l1.982,9.5-9.2-6.98Z" transform="translate(-628.577 -481.426)" fill="#fff"/>
            <path id="Path_1110" data-name="Path 1110" d="M885.3,424.256a13.694,13.694,0,0,0,9.79-8.456,8.969,8.969,0,0,1-2.574,5.961C889.992,424.014,885.3,424.256,885.3,424.256Z" transform="translate(-839.206 -386.791)" fill="#fff"/>
            <path id="Path_1111" data-name="Path 1111" d="M239.071,68.356A14.036,14.036,0,0,1,244.561,60s-3.872,2.118-5.069,4.784S239.071,68.356,239.071,68.356Z" transform="translate(-238.823 -56.36)" fill="#fff"/>
          </g>
        </g>
      </g>
      <path id="Path_1112" data-name="Path 1112" d="M556.85,187.252,544.9,194.1V180.4" transform="translate(-508.701 -168.175)" fill="#f1666a"/>
    </g>
  </g>
</svg>
