<svg xmlns="http://www.w3.org/2000/svg" width="70.26" height="52.664" viewBox="0 0 70.26 52.664">
  <g id="logo-icon" transform="translate(-37.2 -8.951)">
    <g id="Group_1182" data-name="Group 1182" transform="translate(37.2 8.949)">
      <g id="Group_1178" data-name="Group 1178" transform="translate(0 13.18)">
        <path id="Path_1105" data-name="Path 1105" d="M87.046,198.133c-9.725-6.995-29.611-5.119-36.948,2.816s-4.043,20.349,3.494,23.636a31.723,31.723,0,0,0,7.594,2.146l-1.369,6.56,7.936-6.025h0a40.442,40.442,0,0,0,16.727-3.3C93.613,219.766,96.771,205.127,87.046,198.133Z" transform="translate(-45.356 -193.805)" fill="#414042"/>
        <path id="Path_1106" data-name="Path 1106" d="M37.2,544.7a7.732,7.732,0,0,0,2.217,5.141c2.182,1.939,6.232,2.153,6.232,2.153A11.81,11.81,0,0,1,37.2,544.7Z" transform="translate(-37.2 -519.681)" fill="#414042"/>
        <path id="Path_1107" data-name="Path 1107" d="M648.371,241.828c-1.034-2.3-4.371-4.128-4.371-4.128a12.134,12.134,0,0,1,4.734,7.209S649.4,244.138,648.371,241.828Z" transform="translate(-600.735 -234.57)" fill="#414042"/>
      </g>
      <g id="Group_1181" data-name="Group 1181" transform="translate(14.376)">
        <g id="Group_1180" data-name="Group 1180">
          <g id="Group_1179" data-name="Group 1179">
            <path id="Path_1108" data-name="Path 1108" d="M293.94,44.631c8.741-3.807,12.563-18.2,4.057-27.4s-31.558-11.372-42.83-3.258-7.615,25.077,2.966,29.946S283.944,48.981,293.94,44.631Z" transform="translate(-247.596 -8.949)" fill="#fff"/>
            <path id="Path_1109" data-name="Path 1109" d="M665.716,517.7l1.982,9.5-9.2-6.98Z" transform="translate(-628.577 -481.426)" fill="#fff"/>
            <path id="Path_1110" data-name="Path 1110" d="M885.3,424.256a13.694,13.694,0,0,0,9.79-8.456,8.969,8.969,0,0,1-2.574,5.961C889.992,424.014,885.3,424.256,885.3,424.256Z" transform="translate(-839.206 -386.791)" fill="#fff"/>
            <path id="Path_1111" data-name="Path 1111" d="M239.071,68.356A14.036,14.036,0,0,1,244.561,60s-3.872,2.118-5.069,4.784S239.071,68.356,239.071,68.356Z" transform="translate(-238.823 -56.36)" fill="#fff"/>
          </g>
        </g>
      </g>
      <path id="Path_1112" data-name="Path 1112" d="M556.85,187.252,544.9,194.1V180.4" transform="translate(-508.701 -168.175)" fill="#f1666a"/>
    </g>
  </g>
</svg>
